<svg xmlns="http://www.w3.org/2000/svg" viewBox="0 0 441.70911 583.40075"><defs><style>.cls-1{fill:#21100f;}.cls-2{fill:#db282f;}.cls-3{fill:#d9282e;}.cls-4{fill:#a6abad;}.cls-5{fill:#200f0e;}</style></defs><g id="Layer_2" data-name="Layer 2"><g id="Layer_1-2" data-name="Layer 1"><path class="cls-1" d="M123.30827,284.46265c-7.90034,19.67456-15.6311,38.96492-23.39992,58.2401a104.87269,104.87269,0,0,1-4.6889,10.78241q-4.09275,7.56846-8.52943.19853c-6.24-10.34623-12.33955-20.77782-18.42515-31.21627-6.16071-10.56726-12.36121-21.11557-18.2571-31.83015-1.44112-2.61887-2.59764-2.7704-4.781-1.32672a37.63334,37.63334,0,0,1-3.62574,1.85036c-3.565,1.83363-6.235,1.10049-8.372-2.43885-7.10377-11.76563-14.44461-23.38915-21.46655-35.20266C8.528,248.07792,5.01021,242.84229,1.36065,237.696c-1.86777-2.63362-2.08367-4.20764,1.082-6.0722,7.99126-4.70678,15.83165-9.679,23.61117-14.73178,2.718-1.76535,4.10363-1.66215,6.04852,1.2938,11.721,17.81521,21.19713,36.98021,33.0646,54.6941,2.06839,3.08731.96854,4.85477-1.82666,6.52191-7.2374,4.31627-7.26217,4.39419-2.97066,11.68648,10.10607,17.17241,20.26748,34.31223,30.698,51.95828,5.80238-12.10093,10.38015-24.11131,14.96944-36.115,3.70673-9.69567,7.30178-19.43435,11.08757-29.09865a8.00416,8.00416,0,0,0,.07507-5.56928c-4.27932-15.538-3.38989-30.766,3.36673-45.53172a37.795,37.795,0,0,1,10.36452-13.59072c4.9196-4.06365,10.35-5.7197,16.85571-3.916,7.05452,1.95578,14.36284.54016,21.955,1.00305-2.34955-8.83361-4.62985-17.26352-6.8123-25.71871-.50931-1.97307-1.48921-1.97119-3.22729-1.60351-14.4666,3.06082-17.32385,1.21145-21.7286-12.98173a266.48182,266.48182,0,0,1-8.93509-37.409,17.37944,17.37944,0,0,1,2.1147-12.26361c1.04361-1.6678.58638-3.13165.01075-4.71537-3.87843-10.66991-6.56925-21.68843-9.526-32.628-1.15424-4.27043-1.85669-8.43345-5.30691-12.02246-2.84069-2.95507-3.5843-7.59878-2.13935-11.9406,1.48533-4.46341,5.79755-5.53237,8.75148-1.99546,3.00036,3.59249,4.8827,7.7395,3.00839,12.56516a6.39823,6.39823,0,0,0-.20016,4.34044c3.43936,12.52276,6.86875,25.05069,10.04274,37.64218.70139,2.78265,1.625,3.16939,4.27056,2.5436,3.05266-.722,2.41155-2.26815,1.8455-4.31344-2.13448-7.7129-4.0679-15.48243-6.27351-23.17427-1.02472-3.57337-.218-4.56889,3.65393-5.71211,11.72393-3.46158,23.5212-6.654,35.2629-10.04611C220.24976,57.594,265.9461,44.39566,311.89452,32.09c5.643-1.51124,6.05728-1.26122,7.67253,4.16335,2.45575,8.24718,5.17422,16.41854,7.49225,24.703.72045,2.57481,1.93021,2.71,3.84884,1.85713,1.62145-.72078,4.32691-.06523,3.26141-3.7934-3.69233-12.91971-6.99241-25.95171-10.41488-38.94812-.41175-1.56372-1.62406-2.4945-2.53924-3.67918-2.69792-3.49246-4.16525-7.43262-3.17338-11.844,1.00344-4.463,5.47013-6.04542,8.58849-2.91355,3.30291,3.31715,5.47179,7.48067,3.80369,12.29979a10.47753,10.47753,0,0,0-.07684,6.52063q5.19544,19.7102,10.29731,39.44489a4.40507,4.40507,0,0,0,2.19193,3.16407c5.671,3.16678,8.40384,8.58271,10.2305,14.4172,3.83516,12.25,7.69663,24.493,10.12247,37.14542,1.65924,8.654-1.33558,14.43-9.74108,16.30941-4.25721.95184-4.94863,2.1108-3.47925,6.39448,4.0628,11.84449,7.392,23.93984,11.073,35.917,1.06965,3.48026.11158,5.56574-3.61194,6.1836-13.8425,2.29774-27.02915,7.49314-40.9881,9.28775-4.33.55667-7.14793,2.0745-6.25668,7.45523.63447,3.83032.30156,7.8585.08012,11.78026-.15086,2.67241.86067,3.17887,3.32551,3.21168,13.611.18168,27.21918.56333,40.82882.85253,4.89145.104,9.63493.77637,14.67453-.6622,5.34459-1.5257,10.35366,1.1987,14.36787,5.04619,12.32332,11.81163,15.36955,26.89779,15.08213,43.13587a4.28754,4.28754,0,0,1-.14017,1.35089c-3.19526,8.86709.57153,14.91135,6.93247,21.09661q16.09808,15.6537,32.11473,31.41558c3.83726,3.75694,5.14287,7.75607,3.63737,13.055-3.50917,12.35-6.57989,24.82451-10.07189,37.17973-.8205,2.9033-.73673,4.51479,2.57243,5.05817a19.60765,19.60765,0,0,1,4.29733,1.42183c3.04844,1.27795,4.37754,3.40455,3.5362,6.84036q-5.28237,21.57076-10.39155,43.18342c-1.27447,5.42042-2.39958,10.8854-3.32158,16.37565-.54106,3.22165-2.02085,3.90436-5.02431,3.16922q-13.57358-3.32274-27.22915-6.3052c-3.00811-.65366-4.02042-1.9417-3.24989-5.03411q7.80705-31.332,15.4111-62.71454c.96333-3.97131,3.62618-3.39513,6.35163-2.70467,7.5871,1.92231,7.64938,1.97319,9.67654-5.72768,2.88512-10.95922,5.618-21.95856,8.51-32.916.46106-1.7475.52155-3.01847-.88865-4.46237q-17.91721-18.34428-35.65083-36.86714c-1.85675-1.9437-2.8183-1.9907-4.14629.40138-5.55407,10.00482-14.43614,13.206-25.29351,11.9217-2.5034-.29607-3.2305.18035-3.27272,2.86551-.67208,42.65567-2.3234,85.29783-1.74228,127.9688.0544,3.99626-1.87758,6.20876-5.28116,5.50522-10.716-2.2155-15.36788,3.30457-19.072,12.347-3.14019,7.66573-5.95046,14.78975-5.883,23.49312.20293,26.17684,1.06665,52.34115,1.17967,78.51611a15.34886,15.34886,0,0,0,2.99045,9.64146c4.3151,5.68335,5.11544,12.7126,6.99379,19.31342.68261,2.39851-1.154,3.15581-2.93332,3.722a101.85774,101.85774,0,0,1-39.32869,4.394c-8.25143-.65909-16.47294-1.61116-24.45921-4.10954-3.69738-1.15657-4.53627-3.16157-3.85965-6.76421,1.298-6.91109,3.05571-13.56589,7.94605-18.91171,1.07774-1.17808.89491-2.46579.89491-3.80172-.00033-30.11279-.10371-60.22636.11419-90.3376.03257-4.50382-2.93078-7.11205-4.74265-10.38968-2.40417-4.349-4.961-8.62966-7.03031-13.14235-1.00421-2.19-2.068-3.22465-4.61339-3.13031-6.64836.2463-13.30825.28022-19.96188.22014a3.39646,3.39646,0,0,0-3.45793,2.12039c-3.6731,6.92051-7.36322,13.8337-11.18912,20.67a9.03982,9.03982,0,0,0-.84843,4.77174q-.05792,44.71776-.179,89.43553a7.23319,7.23319,0,0,0,1.6306,4.92027c4.63394,5.84263,5.5965,13.15166,7.61242,20.02572.7477,2.5497-1.07032,3.48082-3.04651,4.09181a102.40816,102.40816,0,0,1-39.34033,4.31228c-8.09691-.69535-16.16285-1.59742-24.01976-4.00779-3.88895-1.193-4.84542-3.1465-4.123-6.988,1.27281-6.76787,3.02479-13.25175,7.715-18.5366a4.9957,4.9957,0,0,0,1.13126-3.73111c-.44245-29.51222.768-59.00782.94477-88.51439a12.44734,12.44734,0,0,0-1.79725-6.81432,77.40317,77.40317,0,0,1-8.07613-18.08778c-1.02494-3.49146-2.71365-4.525-6.05163-4.15432a71.29288,71.29288,0,0,1-7.25314.17957c-4.50092.0378-5.92237-1.31087-5.92869-5.91956q-.06275-45.62643-.05751-91.253c0-13.01443-.03512-26.03041.16172-39.04229.04327-2.85874-.734-3.45288-3.51427-3.41841C133.75534,292.869,131.89776,292.03372,123.30827,284.46265Zm31.76221,33.00324c-.85175,36.05807-.82206,69.19488-.91884,102.3318-.01275,4.35351.704,5.89472,5.59107,5.77357,30.68668-.76185,61.38185-1.37339,92.077-1.55053,26.16166-.151,52.327.3546,78.49085.55557,6.80693.05232,13.61507-.00056,20.421.10364,2.21315.03381,3.25715-.55135,3.28313-3.02878.04117-3.92166.63353-7.83522.73187-11.75876.65136-26.00347,1.54117-52.00606,1.76422-78.014.31912-37.20943.14859-74.4233,1.84284-111.60813.08981-1.97064-.4256-2.61865-2.51952-2.51755-13.60017.65654-27.19757.217-40.8055-.04534-32.96415-.63571-65.93568-.88212-98.90365-1.32906-7.11264-.09643-14.136-.01939-21.15874,1.7015-5.12453,1.25579-10.26757,2.48142-15.40562,3.70905-2.74368.65555-5.92392,1.03864-6.92094-2.32324-1.0707-3.6105-3.20839-4.13038-6.3585-3.86656a33.60848,33.60848,0,0,1-6.798-.06019c-3.62552-.43873-4.50852.9708-4.494,4.52211C155.12594,253.504,155.07048,286.94762,155.07048,317.46589ZM181.13419,214.096c1.04505-.1655,2.11032-.25052,3.13216-.50824,24.1207-6.08428,48.61725-10.5462,72.75441-16.487,30.03859-7.39338,60.36073-13.54982,90.31732-21.26876,8.5224-2.19588,8.353-2.08,5.75263-10.39888q-13.30939-42.5777-26.373-85.23227Q320.99878,61.584,315.59355,42.87129c-1.19475-4.11613-2.87886-5.77174-7.59264-4.18985-7.42821,2.49273-14.96727,4.76692-22.52479,6.82757-46.46488,12.66947-92.57274,26.6307-139.25386,38.50806-3.35393.8533-4.17876,2.01-3.18579,5.55847,10.78746,38.55063,21.37869,77.15624,32.02249,115.74716a31.66913,31.66913,0,0,0,2.51454,6.75524C178.43173,213.66937,179.41639,214.35274,181.13419,214.096Zm.54737,248.09973v84.85112c13.9025-7.569,27.61913-6.95309,41.59631-.34573,0-19.77531.00305-38.98454-.0015-58.19387q-.00266-11.34629-.03047-22.69247c-.00221-1.99569-.07152-3.42129-2.99182-2.85221A87.03716,87.03716,0,0,1,181.68156,462.19575Zm144.82012,83.94118a16.45252,16.45252,0,0,0,.23468-1.78885c-.1025-27.363-.24455-54.72591-.27618-82.089-.003-2.56411-1.03447-2.143-2.7449-1.73243a70.68615,70.68615,0,0,1-35.35093-.29651c-3.26491-.8778-2.62712,1.18151-2.62551,2.94343q.03681,39.69223.10709,79.38448c.00377,1.3674-.614,2.95374.68954,4.209C299.63552,539.75326,312.831,540.09411,326.50168,546.13693ZM363.7508,270.65146c0,6.07153.04155,10.3081-.0205,14.54312-.02488,1.69485.179,2.73548,2.294,3.05871,9.403,1.43713,16.21665-1.55962,20.17413-10.20834,8.16439-17.84226,6.664-35.29156-3.51139-51.942a18.667,18.667,0,0,0-9.9121-8.31242c-4.61888-1.54853-8.01542.89565-7.96256,5.7176C364.99136,239.84432,364.6518,256.1693,363.7508,270.65146Zm-215.82465-19.772c0-10.27485.03258-20.54981-.01495-30.82443-.02106-4.55227-2.64462-6.39864-7.025-4.89024a19.83458,19.83458,0,0,0-10.4663,8.9786c-9.62019,16.00741-11.37572,32.82023-4.25167,50.23617,3.1761,7.7645,8.92883,11.72306,17.68414,11.38354,3.56973-.13834,4.19123-1.334,4.13494-4.51347C147.808,271.1291,147.92089,261.00323,147.92615,250.87947ZM203.71626,432.7312q.00042-.36381.00095-.72771-13.5769,0-27.1537.00144c-6.70393.00454-6.69628.02372-3.98568,5.86214,2.34927,5.05994,4.8391,10.06911,6.87485,15.25464a7.95858,7.95858,0,0,0,6.56,5.35834,102.61984,102.61984,0,0,0,27.86661.91693c6.524-.572,10.33449-3.69508,12.96166-9.39594a122.2385,122.2385,0,0,1,7.45912-13.43853c1.82245-2.92,1.87-3.97065-2.056-3.89261C222.7382,432.85878,213.22593,432.7312,203.71626,432.7312Zm-.34648,115.21165c-9.755-.20762-15.24384,1.46651-21.7091,7.16881a24.1566,24.1566,0,0,0-8.3998,16.04686c-.21485,2.08681.36466,3.45366,2.61737,3.94117,17.47167,3.781,34.93342,4.32646,52.46.26149,2.86008-.6632,3.0325-1.90746,2.65438-4.47224C229.062,557.79182,218.78016,546.51193,203.36978,547.94285ZM307.587,577.9438a85.23657,85.23657,0,0,0,25.1062-2.60535c1.75109-.4527,3.41077-.79854,2.92024-3.09019-1.26511-5.90947-2.70772-11.65545-7.04554-16.37054-8.5285-9.27035-19.3349-9.25384-30.19239-7.12147-10.43211,2.04878-17.20823,8.98547-20.2712,19.26065-1.50344,5.04331-.73646,6.19557,4.37179,7.44282A89.75634,89.75634,0,0,0,307.587,577.9438Zm29.85272-146.28006c-21.9039.23588-43.37278-1.91532-65.1877.56443,3.55272,7.26935,7.36566,14.21025,11.51522,20.97646.81918,1.33559,2.18445,1.62379,3.42385,1.96609,12.373,3.4163,24.69656,2.88856,36.97877-.58516a4.57822,4.57822,0,0,0,2.84085-2.04125A132.70168,132.70168,0,0,0,337.43972,431.66374Zm95.07653-52.27331c.88588-2.42988-.412-2.95252-2.09974-3.28251-4.29189-.83934-8.67675-1.40322-12.82637-2.70777-3.53155-1.11014-4.70885.43363-5.43639,3.29913-4.00834,15.7876-7.95951,31.59005-12.07035,47.35094-.61673,2.3647.03125,3.224,2.22894,3.76691,5.41456,1.33781,10.81228,2.75854,16.16712,4.31638,1.91425.55689,2.3588-.24486,2.70783-1.8231C424.96616,413.22213,428.78315,396.14239,432.51625,379.39043ZM55.43285,271.38028a12.97091,12.97091,0,0,0-.94876-2.52975c-8.362-14.12745-16.78235-28.22042-25.13267-42.35484-1.05126-1.77954-1.99326-2.22869-3.90907-1.04972-4.74824,2.922-9.56213,5.75539-14.49081,8.357-2.02933,1.07111-1.66112,2.0357-.74028,3.48359q13.95759,21.947,27.85851,43.92975c1.18566,1.88251,2.20556,1.98471,3.96657.75032,3.82691-2.68227,7.78949-5.17056,11.68808-7.75108C54.5888,273.64355,55.60593,273.15571,55.43285,271.38028Zm303.0189-151.73246a8.93186,8.93186,0,0,0-.1513-1.34978c-3.71682-13.99288-7.22056-28.04888-11.30874-41.93262-1.242-4.21768-3.58081-8.36141-8.57315-9.84-3.04662-.90224-5.88913.11844-8.22854,1.45049-2.07664,1.18246-.1594,3.62275.34471,5.31738,5.11777,17.20389,10.3736,34.36682,15.6383,51.52665.28682.93483.19535,2.15243,1.41181,2.66282C351.13867,128.9736,358.45391,123.70576,358.45175,119.64782ZM134.18332,130.67094a24.28745,24.28745,0,0,0,.85807,6.27023c3.25532,11.93239,6.38116,23.90043,9.686,35.81891,1.90018,6.85278,4.70535,8.109,11.82021,6.39155,3.54584-.85585,4.6043-2.051,3.38822-5.83687-3.55288-11.06109-6.72714-22.24587-9.93543-33.41509-1.83209-6.37824-3.51853-12.80155-5.11156-19.24386-.60943-2.46441-1.69187-2.95064-4.08824-2.245C136.01758,119.81891,134.00421,123.04245,134.18332,130.67094Zm95.47128,79.0423c21.35264,1.484,42.65781,1.25,63.958,1.316,10.83577.03348,10.83577.02583,11.43716-10.95267.44649-8.15091.45446-8.11677-7.67946-6.20732Q263.51829,201.81611,229.6546,209.71324Z"/><path class="cls-2" d="M155.07048,317.46589c0-30.51827.05546-63.9619-.08133-97.40487-.01452-3.55131.86848-4.96084,4.494-4.52211a33.60848,33.60848,0,0,0,6.798.06019c3.15011-.26382,5.2878.25606,6.3585,3.86656.997,3.36188,4.17726,2.97879,6.92094,2.32324,5.138-1.22763,10.28109-2.45326,15.40562-3.70905,7.02272-1.72089,14.0461-1.79793,21.15874-1.7015,32.968.44694,65.9395.69335,98.90365,1.32906,13.60793.26237,27.20533.70188,40.8055.04534,2.09392-.1011,2.60933.54691,2.51952,2.51755-1.69425,37.18483-1.52372,74.3987-1.84284,111.60813-.22305,26.00791-1.11286,52.0105-1.76422,78.014-.09834,3.92354-.6907,7.8371-.73187,11.75876-.026,2.47743-1.07,3.06259-3.28313,3.02878-6.80593-.1042-13.61407-.05132-20.421-.10364-26.16388-.201-52.32919-.70654-78.49085-.55557-30.69516.17714-61.39033.78868-92.077,1.55053-4.88708.12115-5.60382-1.42006-5.59107-5.77357C154.24842,386.66077,154.21873,353.524,155.07048,317.46589Z"/><path class="cls-3" d="M181.13136,214.10012c-1.715.25262-2.69963-.43075-3.55786-2.02218a31.66913,31.66913,0,0,1-2.51454-6.75524c-10.6438-38.59092-21.235-77.19653-32.02249-115.74716-.993-3.54848-.16814-4.70517,3.18579-5.55847,46.68112-11.87736,92.789-25.83859,139.25386-38.50806,7.55752-2.06065,15.09658-4.33484,22.52479-6.82757,4.71378-1.58189,6.39789.07372,7.59264,4.18985q5.42889,18.70359,11.12414,37.32954,13.09938,42.64305,26.373,85.23227c2.60041,8.31884,2.76977,8.203-5.75263,10.39888-29.95659,7.71894-60.27873,13.87538-90.31732,21.26876-24.13716,5.94084-48.63371,10.40276-72.75441,16.487C183.24451,213.8455,182.17924,213.93052,181.13136,214.10012Zm91.35313-50.49666c3.33681.71762,5.75417,3.26965,8.85354,4.4464,1.77591.67417,3.70158,1.05338,4.74425-1.0557a3.22646,3.22646,0,0,0-1.50362-4.30164c-5.19051-3.091-10.47144-6.03152-15.74977-8.97229a3.45284,3.45284,0,0,0-4.227.33332c-1.36305,1.19116-1.28832,2.60025-.60333,4.12329.47735,1.06158,1.341,2.08159.48605,3.5992-2.66418-1.70439-5.286-3.41963-7.94877-5.06837a3.0804,3.0804,0,0,0-3.80308.047c-1.25663.98587-1.2466,2.15564-.90117,3.6452.43053,1.8568,1.50838,3.63622.973,6.19047-2.79841-1.89836-5.3437-3.70063-7.96954-5.37641-1.44854-.92446-3.057-1.45919-4.62585-.1696-1.575,1.29459-1.36927,2.83159-.61153,4.50228.65336,1.44012,1.38145,2.93877.394,4.776-2.924-1.69552-5.63844-3.28894-8.37437-4.84435a1.97464,1.97464,0,0,0-2.51653.11018,1.57142,1.57142,0,0,0,.10826,2.4199c4.69976,4.00258,8.822,8.77166,14.48987,11.51146,2.82341,1.36486,3.84857-.30561,3.984-2.929.09246-1.79007-1.52877-3.36476-.57159-5.493,2.04024.13834,3.34358,1.85857,5.09733,2.522,2.66623,1.00871,5.05716,4.401,8.19591,2.09722,3.32867-2.44295-.4005-5.17289-.42017-7.81593q.32943-.286.62887-.60334a41.43126,41.43126,0,0,0,4.38769,2.31305c2.55575.99607,5.12807,3.88873,7.892,1.76346,3.088-2.37445-.79635-4.83015-.83718-7.3507Q272.27305,163.81644,272.48449,163.60346Zm-55.80922-18.49609c-.19031-10.71929-5.93064-28.37942-11.94686-36.99716-2.31964-3.32281-5.19855-5.88625-9.417-4.63684-3.63825,1.07765-4.4233,4.63041-4.88574,7.98818-1.57841,11.45936,1.9537,22.07013,5.82736,32.51962,1.88223,5.07762,4.68192,9.84149,9.0665,13.32119,4.16608,3.30624,8.08816,2.14578,9.92662-2.86317A25.22835,25.22835,0,0,0,216.67527,145.10737Zm80.72466-20.33271c-1.08067-13.96078-4.641-26.73651-12.03722-38.329-2.17686-3.41187-5.0043-5.22433-9.07065-4.43322-3.88951.7567-4.41,4.13953-5.11345,7.2014-1.68434,7.3308.29645,14.39386,1.91935,21.42388,1.91636,8.30133,4.95167,16.18748,10.46978,22.83481,2.0373,2.45426,4.56375,4.68877,8.1594,3.73765,3.4371-.90923,4.29638-3.97115,4.92016-6.98153C297.04331,128.31694,297.18968,126.35351,297.39993,124.77466Z"/><path class="cls-4" d="M181.68156,462.19575a87.03716,87.03716,0,0,0,38.57252.76684c2.9203-.56908,2.98961.85652,2.99182,2.85221q.01239,11.34628.03047,22.69247c.00455,19.20933.0015,38.41856.0015,58.19387-13.97718-6.60736-27.69381-7.22323-41.59631.34573Z"/><path class="cls-4" d="M326.50168,546.13693c-13.67065-6.04282-26.86616-6.38367-39.96621.63006-1.30356-1.25523-.68577-2.84157-.68954-4.209q-.1092-39.69209-.10709-79.38448c-.00161-1.76192-.6394-3.82123,2.62551-2.94343a70.68615,70.68615,0,0,0,35.35093.29651c1.71043-.41058,2.74191-.83168,2.7449,1.73243.03163,27.36312.17368,54.726.27618,82.089A16.45252,16.45252,0,0,1,326.50168,546.13693Z"/><path class="cls-3" d="M363.7508,270.65146c.901-14.48216,1.24056-30.80714,1.06156-47.14332-.05286-4.82195,3.34368-7.26613,7.96256-5.7176a18.667,18.667,0,0,1,9.9121,8.31242c10.17538,16.65043,11.67578,34.09973,3.51139,51.942-3.95748,8.64872-10.77117,11.64547-20.17413,10.20834-2.115-.32323-2.31886-1.36386-2.294-3.05871C363.79235,280.95956,363.7508,276.723,363.7508,270.65146Z"/><path class="cls-3" d="M147.9235,250.87947c-.00261,10.12376-.11546,20.24963.06382,30.37017.05629,3.17943-.56521,4.37513-4.13494,4.51347-8.75531.33952-14.508-3.619-17.68414-11.38354-7.124-17.41594-5.36852-34.22876,4.25167-50.23617a19.83458,19.83458,0,0,1,10.4663-8.9786c4.38037-1.5084,7.00393.338,7.025,4.89024C147.95873,230.32966,147.92615,240.60462,147.9235,250.87947Z"/><path class="cls-3" d="M203.71626,432.7312c9.50967,0,19.02194.12758,28.52783-.0613,3.926-.078,3.87843.97257,2.056,3.89261A122.2385,122.2385,0,0,0,226.841,450.001c-2.62717,5.70086-6.43762,8.824-12.96166,9.39594a102.61984,102.61984,0,0,1-27.86661-.91693,7.95858,7.95858,0,0,1-6.56-5.35834c-2.03575-5.18553-4.52558-10.1947-6.87485-15.25464-2.7106-5.83842-2.71825-5.8576,3.98568-5.86214q13.57683-.00915,27.1537-.00144Q203.7167,432.36729,203.71626,432.7312Z"/><path class="cls-3" d="M203.36978,547.94285c15.41038-1.43092,25.69218,9.849,27.62284,22.94609.37812,2.56478.2057,3.809-2.65438,4.47224-17.52657,4.065-34.98832,3.5195-52.46-.26149-2.25271-.48751-2.83222-1.85436-2.61737-3.94117a24.1566,24.1566,0,0,1,8.3998-16.04686C188.12594,549.40936,193.61479,547.73523,203.36978,547.94285Z"/><path class="cls-3" d="M307.592,577.94579a89.84864,89.84864,0,0,1-25.11589-2.48607c-5.10825-1.24725-5.87523-2.39951-4.37179-7.44282,3.063-10.27518,9.83909-17.21187,20.2712-19.26065,10.85749-2.13237,21.66389-2.14888,30.19239,7.12147,4.33782,4.71509,5.78043,10.46107,7.04554,16.37054.49053,2.29165-1.16915,2.63749-2.92024,3.09019A85.28863,85.28863,0,0,1,307.592,577.94579Z"/><path class="cls-3" d="M337.43972,431.66374a132.70168,132.70168,0,0,1-10.429,20.88057,4.57822,4.57822,0,0,1-2.84085,2.04125c-12.28221,3.47372-24.60581,4.00146-36.97877.58516-1.2394-.3423-2.60467-.6305-3.42385-1.96609-4.14956-6.76621-7.9625-13.70711-11.51522-20.97646C294.06694,429.74842,315.53582,431.89962,337.43972,431.66374Z"/><path class="cls-3" d="M432.51625,379.39043c-3.7331,16.752-7.55009,33.8317-11.329,50.92-.349,1.57824-.79358,2.38-2.70783,1.8231-5.35484-1.55784-10.75256-2.97857-16.16712-4.31638-2.19769-.54293-2.84567-1.40221-2.22894-3.76691,4.11084-15.76089,8.062-31.56334,12.07035-47.35094.72754-2.8655,1.90484-4.40927,5.43639-3.29913,4.14962,1.30455,8.53448,1.86843,12.82637,2.70777C432.10428,376.43791,433.40213,376.96055,432.51625,379.39043Z"/><path class="cls-3" d="M55.43285,271.38028c.17308,1.77543-.84405,2.26327-1.70843,2.83524-3.89859,2.58052-7.86117,5.06881-11.68808,7.75108-1.761,1.23439-2.78091,1.13219-3.96657-.75032q-13.861-22.00788-27.85851-43.92975c-.92084-1.44789-1.289-2.41248.74028-3.48359,4.92868-2.60158,9.74257-5.43494,14.49081-8.357,1.91581-1.179,2.85781-.72982,3.90907,1.04972,8.35032,14.13442,16.77066,28.22739,25.13267,42.35484A12.97091,12.97091,0,0,1,55.43285,271.38028Z"/><path class="cls-3" d="M358.44693,119.64832c.007,4.05744-7.30826,9.32528-10.86209,7.83444-1.21646-.51039-1.125-1.728-1.41181-2.66282-5.2647-17.15983-10.52053-34.32276-15.6383-51.52665-.50411-1.69463-2.42135-4.13492-.34471-5.31738,2.33941-1.332,5.18192-2.35273,8.22854-1.45049,4.99234,1.47859,7.3312,5.62232,8.57315,9.84,4.08818,13.88374,7.59192,27.93974,11.30874,41.93262A8.35085,8.35085,0,0,1,358.44693,119.64832Z"/><path class="cls-3" d="M134.18332,130.67094c-.17911-7.62849,1.83426-10.852,6.61723-12.26017,2.39637-.7056,3.47881-.21937,4.08824,2.245,1.593,6.44231,3.27947,12.86562,5.11156,19.24386,3.20829,11.16922,6.38255,22.354,9.93543,33.41509,1.21608,3.78587.15762,4.981-3.38822,5.83687-7.11486,1.71746-9.92.46123-11.82021-6.39155-3.3048-11.91848-6.43064-23.88652-9.686-35.81891A24.28745,24.28745,0,0,1,134.18332,130.67094Z"/><path class="cls-4" d="M229.6546,209.71324q33.85857-7.9188,67.71569-15.844c8.13392-1.90945,8.12595-1.94359,7.67946,6.20732-.60139,10.9785-.60139,10.98615-11.43716,10.95267C272.31241,210.96326,251.00724,211.19726,229.6546,209.71324Z"/><path class="cls-5" d="M216.67133,145.10676a25.14562,25.14562,0,0,1-1.42522,9.33243c-1.83846,5.00895-5.76054,6.16941-9.92662,2.86317-4.38458-3.4797-7.18427-8.24357-9.0665-13.32119-3.87366-10.44949-7.40577-21.06026-5.82736-32.51962.46244-3.35777,1.24749-6.91053,4.88574-7.98818,4.21849-1.24941,7.0974,1.314,9.417,4.63684C210.74463,116.728,216.485,134.38808,216.67133,145.10676Z"/><path class="cls-5" d="M297.39993,124.77466c-.21025,1.57885-.35662,3.54228-.75263,5.454-.62378,3.01038-1.48306,6.0723-4.92016,6.98153-3.59565.95112-6.1221-1.28339-8.1594-3.73765-5.51811-6.64733-8.55342-14.53348-10.46978-22.83481-1.6229-7.03-3.60369-14.09308-1.91935-21.42388.70344-3.06187,1.22394-6.4447,5.11345-7.2014,4.06635-.79111,6.89379,1.02135,9.07065,4.43322C292.759,98.03815,296.31926,110.81388,297.39993,124.77466Z"/><path class="cls-1" d="M259.98438,167.901c.01967,2.643,3.74884,5.373.42017,7.81593-3.13875,2.30374-5.52968-1.08851-8.19591-2.09722-1.75375-.66342-3.05709-2.38365-5.09733-2.522-.95718,2.12826.66405,3.70295.57159,5.493-.13546,2.62341-1.16062,4.29388-3.984,2.929-5.66791-2.7398-9.79011-7.50888-14.48987-11.51146a1.57142,1.57142,0,0,1-.10826-2.4199,1.97464,1.97464,0,0,1,2.51653-.11018c2.73593,1.55541,5.45036,3.14883,8.37437,4.84435.98743-1.83718.25934-3.33583-.394-4.776-.75774-1.67069-.9635-3.20769.61153-4.50228,1.56882-1.28959,3.17731-.75486,4.62585.1696,2.62584,1.67578,5.17113,3.478,7.96954,5.37641.53541-2.55425-.54244-4.33367-.973-6.19047-.34543-1.48956-.35546-2.65933.90117-3.6452a3.0804,3.0804,0,0,1,3.80308-.047c2.6628,1.64874,5.28459,3.364,7.94877,5.06837.855-1.51761-.0087-2.53762-.48605-3.5992-.685-1.523-.75972-2.93213.60333-4.12329a3.45284,3.45284,0,0,1,4.227-.33332c5.27833,2.94077,10.55926,5.88132,15.74977,8.97229a3.22646,3.22646,0,0,1,1.50362,4.30164c-1.04267,2.10908-2.96834,1.72987-4.74425,1.0557-3.09937-1.17675-5.51673-3.72878-8.85648-4.44341-.25263-.30782-.51945-.64845-.8569-.127-.04028.0623.27867.357.43108.544.04083,2.52055,3.92513,4.97625.83718,7.3507-2.7639,2.12527-5.33622-.76739-7.892-1.76346a41.68773,41.68773,0,0,1-4.38857-2.31216c-.21928-.16062-.55436-.506-.6368-.45347C259.48327,167.1581,259.68156,167.54651,259.98438,167.901Z"/><path class="cls-3" d="M272.05573,164.02346c-.15241-.187-.47136-.48174-.43108-.544.33745-.52142.60427-.18079.8569.127C272.34355,163.74545,272.20061,163.88545,272.05573,164.02346Z"/><path class="cls-3" d="M259.98438,167.901c-.30282-.35448-.50111-.74289-.00881-1.05592.08244-.05255.41752.29285.6368.45347Q260.31427,167.61446,259.98438,167.901Z"/></g></g></svg>