<svg xmlns="http://www.w3.org/2000/svg" viewBox="0 0 291.09247 587.50143"><defs><style>.cls-1{fill:#200f0e;}.cls-2{fill:#db282f;}.cls-3{fill:#a6abad;}.cls-4{fill:#d9282e;}</style></defs><g id="Layer_2" data-name="Layer 2"><g id="Layer_1-2" data-name="Layer 1"><path class="cls-1" d="M274.09039,291.65219c-6.38585,2.44344-12.66,2.26761-19.22287,1.71675-.18019,10.6234-.62407,21.10866-.79618,31.5648-.5563,33.79662-1.69049,67.59138-1.19817,101.4014.07464,5.12453-1.10356,7.03371-5.99878,6.30055-9.558-1.43166-14.4241,2.22826-18.07718,11.147-3.68309,8.992-6.82791,17.36144-6.70317,27.509.32066,26.0829,1.12212,52.1602,1.23949,78.246a14.70021,14.70021,0,0,0,2.88974,9.41787c4.49522,5.74935,5.25364,12.95411,7.2619,19.65874.7935,2.64917-1.19961,3.51058-3.17585,4.13082a104.71251,104.71251,0,0,1-39.68119,4.4158c-8.41084-.64608-16.80229-1.606-24.96133-4.14416-4.00146-1.24478-4.84455-3.296-4.11973-7.18073,1.28971-6.9122,3.10023-13.51533,7.90047-18.89431a5.13378,5.13378,0,0,0,1.08515-3.82214c-.0226-31.0291-.08989-62.05859.07281-93.08683.02131-4.0658-2.79334-6.37152-4.43771-9.3153-2.773-4.96429-5.65752-9.86321-8.0219-15.03813a3.37323,3.37323,0,0,0-3.79787-2.34157c-6.77851.32168-13.573.42827-20.35976.38394a4.07682,4.07682,0,0,0-4.19084,2.59512q-5.3385,10.21809-10.99623,20.268a10.16083,10.16083,0,0,0-1.08375,5.28247q-.02268,45.62-.16716,91.23979a7.38908,7.38908,0,0,0,1.67166,5.01626c4.72038,5.964,5.70662,13.41863,7.76086,20.43221.76379,2.60773-1.10991,3.54666-3.11834,4.16723a104.52559,104.52559,0,0,1-40.13453,4.39376c-8.26029-.71032-16.4889-1.62838-24.504-4.08841-3.97334-1.21956-4.9291-3.2217-4.19179-7.13623,1.30041-6.90417,3.07389-13.53,7.88179-18.902,1.17751-1.31568,1.14869-2.74032,1.12667-4.279-.422-29.4904.74972-58.96389.97765-88.44773a16.14425,16.14425,0,0,0-2.24215-9.17388,71.02789,71.02789,0,0,1-7.83072-17.62313c-1.05283-3.55966-2.77466-4.61212-6.178-4.2348a72.97347,72.97347,0,0,1-7.3994.18383c-4.59172.03913-6.04054-1.33576-6.047-6.03926q-.064-46.547-.05854-93.0939c0-13.277-.0344-26.55547.16434-39.83.04345-2.90312-.71147-3.67343-3.58086-3.48372-5.08865.3365-10.13541-.1801-15.00926-2.85316,0,11.5883-.38607,22.792.07414,33.96077,1.25912,30.557.66444,61.12768,1.02318,91.69.04326,3.68474.33982,5.64661,4.88534,5.038,3.46734-.46417,5.79468,1.12281,6.19181,5.51164,1.424,15.73669.42007,31.47541.52819,47.20836.03624,5.27449-2.95,7.97348-8.24619,7.68064-5.66827-.31354-11.36584.60033-17.03218-.83618-2.94476-.74645-4.33978-2.17613-4.25967-5.03226.41105-14.65679-.39669-29.333.70753-43.978.116-1.53824.65005-3.20467.2448-4.594-1.49889-5.13856,1.54259-6.12221,5.35151-5.73811,3.87739.39107,4.09031-1.40242,4.01163-4.48654-1.09881-43.07029.18588-86.14115.11967-129.21278a10.61281,10.61281,0,0,0-1.89688-5.94918c-12.29928-19.6897-8.40479-52.45865,8.05489-68.26321,5.50566-5.28654,11.787-7.84177,19.35827-4.98479a11.03828,11.03828,0,0,0,4.07306.40206c15.7399.09729,31.48077.06873,47.22.21934,2.5759.02465,3.27-.46471,3.07477-3.259-.42975-6.15029-.413-12.34375-.29983-18.51445.04864-2.65112-.80655-3.28281-3.37419-3.31943-11.56757-.16471-23.13129-.58577-34.69737-.87463-6.15159-.15366-7.20927-1.1249-7.26278-7.39854-.08817-10.34322-.32558-20.69478-.004-31.02734.13362-4.293-1.12472-5.64116-5.26185-5.10941-9.1162,1.17172-15.31173-4.38225-15.3416-14.8754-.01315-4.61851-.6749-9.248-.49836-13.85168.3832-9.99343-.11385-20.03908,1.51907-29.96839.53193-3.23456,1.3414-6.58294,3.697-8.81143,2.87115-2.71617,2.81956-5.71687,2.55837-9.1486-.9619-12.63872-.66362-25.30241-.48172-37.96017a8.78549,8.78549,0,0,0-1.29064-5.10925c-2.715-4.48773-2.45569-9.34253-.09183-14.044A5.55319,5.55319,0,0,1,34.68168.24031c2.29219-.00864,3.56452,1.65672,4.359,3.57288,1.84539,4.45056,2.54128,8.9451-.74437,13.0516a6.13337,6.13337,0,0,0-1.11674,4.28686c.00831,13.12212.07556,26.245-.06113,39.36569-.02809,2.69677.42569,3.7314,3.45651,3.70543,2.90531-.02494,3.14579-1.17511,3.11043-3.52384-.12551-8.335-.03777-16.673-.10476-25.00928-.02728-3.3929.71671-5.06776,4.86935-4.42811,3.72375.57358,7.65488-.34,11.49633-.37049,57.55414-.4567,115.09231-2.21079,172.65374-2.13215,3.87612.00529,5.5711,1.179,5.60377,5.28631.07246,9.09809.6729,18.19177.75729,27.29006.02535,2.736,1.13725,3.0631,3.28031,2.78989,1.90288-.24259,4.32361.92318,4.2745-2.86474-.17811-13.73767-.09205-27.47926-.02227-41.219.00774-1.5244-.78454-2.58381-1.34135-3.81916-1.92763-4.27658-2.31739-8.66288-.15928-12.91237,2.17308-4.279,7.31088-4.46285,9.47347-.23834,2.25182,4.39876,3.0614,9.19095-.17522,13.51058a7.72209,7.72209,0,0,0-1.34211,5.13242c-.08133,14.04746-.13738,28.09524-.29884,42.1418a4.42054,4.42054,0,0,0,1.29452,3.69509c4.85425,4.57124,6.09931,10.68234,6.31266,16.86424.45147,13.08267,1.18178,26.16574.19887,39.2792-.66575,8.88173-5.1266,13.85665-13.863,13.47195-4.71475-.2076-5.52546.8828-5.16939,5.68405.946,12.75655.88062,25.58553,1.38193,38.37926.16154,4.12287-2.00383,5.18981-5.444,4.84124-10.92917-1.10737-21.91294-.19-32.83951-.96937-2.88739-.20594-3.69634.42813-3.53466,3.37829a151.51407,151.51407,0,0,1,.029,15.73934c-.14639,2.96476.86135,3.50524,3.62411,3.53645,14.03994.15852,28.07724.5538,42.11517.88018,4.68836.109,9.1927.80013,14.0543-.65032,5.62372-1.67783,10.85017,1.17977,15.05277,5.24723,12.37222,11.97426,15.69447,27.21951,15.17884,43.6079-.32048,10.18574-2.87286,19.86258-9.3923,28.06474-.98554,1.23988-.92715,2.53671-.93444,3.90792-.22527,42.29956,1.11248,84.59887.01769,126.89789-.05463,2.11025.09781,3.27151,2.84373,3.30306,6.33139.07266,5.93169.30919,6.5241,6.89083,1.33208,14.79911.44071,29.62118.94416,44.42335.23565,6.9286-1.12257,8.39656-8.11076,8.74928-4.61971.23314-9.25674.21334-13.88461.16686-4.1654-.04184-7.39691-2.5591-7.43839-6.57213-.17212-16.65746-1.171-33.34195.65221-49.962.44826-4.08632,4.03074-4.28768,7.12181-3.9518,2.88556.3136,3.66829-.44778,3.69217-3.37527q.49692-60.89647,1.20526-121.79128C274.28734,293.136,274.19544,292.67831,274.09039,291.65219Zm-231.403,24.21506c-.91444,37.23414-.833,71.35007-.928,105.46571-.011,3.96023.78105,5.21484,5.03794,5.13116,35.9407-.70693,71.88891-1.65015,107.83053-1.49878,28.85127.12152,57.70723.40452,86.56144.5806,2.35506.01436,4.40749.37885,4.50211-3.32166.37427-14.64362,1.35245-29.27378,1.61613-43.91779.5251-29.16544.70035-58.33715,1.06964-87.50561.2814-22.2244.67969-44.44744.9159-66.67224.03267-3.07564,2.16763-6.89133.30765-8.93735-2.0938-2.30315-6.10255-.271-9.27061-.29982-28.54-.25957-57.07233-.82465-85.6075-1.415-35.48048-.73409-70.97424-.812-106.45919-1.36818-4.27446-.06695-5.731.76086-5.69916,5.44936C42.794,251.36717,42.68735,285.17906,42.68735,315.86725ZM51.06126,119.187q0,25.69267-.0163,51.38526c-.00361,2.12919-.14115,3.82632,2.98227,3.80393,17.107-.12284,34.17367,1.21074,51.25991,1.67291q28.18341.76233,56.34859,1.87072c23.70635.94871,47.43695,1.28295,71.14714,2.1532,3.97331.1458,4.82859-1.24461,4.41405-4.6538-1.56656-12.88432-.91669-25.864-1.53352-38.79535-1.454-30.482-2.11687-61.00168-3.11493-91.50561-.07045-2.15358-.3999-4.30506-.36915-6.45409.04751-3.32406-1.27473-4.42472-4.71226-4.30034-8.31238.30079-16.63389.48657-24.94825.69242-29.13363.72133-58.28266.26265-87.42508,1.09384-20.03688.5715-40.10318.23875-60.15425.06872-3.74942-.03178-4.97044.79642-4.91557,4.76394C50.38435,67.04974,51.45454,93.11016,51.06126,119.187ZM176.04778,550.19186c13.64648-6.209,23.64048-7.72724,41.81456-.85134,0-1.6545.00622-3.14213-.00091-4.62966-.12878-26.83839-.30516-53.67673-.32057-80.51518-.00161-2.79715-.94192-2.53722-2.95957-2.02062a73.86163,73.86163,0,0,1-31.15941.87537c-7.44509-1.28261-7.38362-1.46152-7.37961,6.1243C176.05646,496.01725,176.04778,522.85977,176.04778,550.19186Zm-64.01754-.15454a16.88306,16.88306,0,0,0,.23059-1.779q.05333-39.60127.08114-79.2025c.00062-.92411-.16056-1.84839-.15841-2.77244.004-1.73683-.96247-2.06168-2.41412-1.76471a91.3281,91.3281,0,0,1-39.99726-.6169V550.446C83.82972,542.81277,97.70569,543.22215,112.03024,550.03732Zm33.5052-343.31691.00088.91136c15.26747,0,30.53574-.0821,45.80169.07054,2.98687.02983,4.12637-.82106,4.17888-3.819.09174-5.24.34366-10.48682.799-15.70717.25419-2.91463-.77521-3.7-3.57663-3.68519-8.47943.04478-16.96458-.03118-25.43968-.30362q-34.65378-1.11386-69.29874-2.489c-3.04011-.12228-3.64152.97757-3.45016,3.6909.44407,6.29682.78762,12.60716.91254,18.91713.05358,2.70648,1.65293,2.41712,3.35523,2.41663Q122.17694,206.7165,145.53544,206.72041Zm110.05388,61.63334c0,6.20994.07882,10.52354-.03456,14.83211-.0537,2.04155.43483,2.983,2.72121,3.22545,10.05631,1.06615,16.71944-2.1839,20.74376-11.5345,7.65569-17.7881,6.14947-35.13995-3.9212-51.63581a19.59211,19.59211,0,0,0-9.97217-8.60673c-4.94073-1.78763-8.51081.62253-8.45584,5.76527C256.84817,237.02712,256.51539,253.64352,255.58932,268.35375Zm-220.183-19.95037c0-10.48531.03289-20.97077-.0143-31.45589-.02252-5.005-2.63216-6.73448-7.45875-5.01577a19.64074,19.64074,0,0,0-10.06009,8.53036c-10.21076,16.53908-12.05247,33.98619-4.56107,52.06337,3.28991,7.9388,9.37282,11.8258,18.24722,11.291,2.96087-.17842,3.95084-.91924,3.902-3.958C35.29289,269.37577,35.39651,258.88876,35.40633,248.40338Zm89.754,186.36207-.36322-1.69182q-32.08875,0-64.17745.01555c-3.22738.00458-1.92612,1.88922-1.23984,3.40371,2.86288,6.31791,5.82963,12.59065,8.57636,18.95843a6.978,6.978,0,0,0,5.44522,4.364,82.73557,82.73557,0,0,0,29.3634,1.00757c3.87731-.55652,8.07939-.481,10.40983-4.72788C117.09784,448.94557,121.15785,441.87131,125.16036,434.76545ZM91.902,581.945a88.17051,88.17051,0,0,0,25.61955-2.67547c1.85785-.47209,3.36269-.97868,2.86458-3.25263-1.35384-6.1809-2.95036-12.1302-7.57849-17.01261-8.43975-8.90376-19.102-8.89669-29.64541-7.07878-11.01237,1.89877-18.2741,9.1179-21.49153,19.98534-1.46835,4.95965-.63157,6.251,4.15333,7.42065A92.48462,92.48462,0,0,0,91.902,581.945Zm106.33679-.002a86.68553,86.68553,0,0,0,25.61974-2.65387c1.75755-.45841,3.52774-.74628,3.03119-3.10923-1.26832-6.03586-2.762-11.88338-7.15058-16.72333-8.52338-9.40017-19.46724-9.42126-30.36606-7.4544-10.82485,1.95362-17.94884,9.07967-21.14606,19.75752-1.54779,5.16926-.76574,6.36252,4.389,7.63365A91.38135,91.38135,0,0,0,198.23875,581.943Zm-36.00461-148.686c3.62,7.43207,7.51724,14.51074,11.74877,21.41689.83895,1.36911,2.22633,1.65924,3.48874,2.00818,12.626,3.49023,25.20226,2.94887,37.73634-.59338a4.69569,4.69569,0,0,0,2.9022-2.08068,135.62805,135.62805,0,0,0,10.63149-21.26562C206.40468,432.80227,184.49932,430.80172,162.23414,433.25706Zm92.5447-330.81738c-.22-6.69971,1.03833-15.6603-.91426-24.514-1.43642-6.51318-4.883-9.12935-11.18767-9.26629-3.344-.07264-3.79484,1.34581-3.64285,4.0897q.60036,10.84.9363,21.69426c.36582,11.69917.62328,23.40169.96685,35.10165.03262,1.111-.45766,2.40041,1.26643,3.0334a9.40634,9.40634,0,0,0,12.552-8.5006C254.86015,117.60353,254.77884,111.12633,254.77884,102.43968ZM44.56513,123.04441l-.87154-.00317q0-12.233-.00188-24.46592c-.00951-8.7836-.16115-17.56978.01855-26.34934.06156-3.00769-1.08175-3.66367-3.76368-3.53492-4.48792.21549-8.28287,3.31293-9.12485,8.85381-2.49025,16.38768-.8182,32.89131-.73956,49.34048.02139,4.47789,4.72214,6.3785,11.83,5.73974,4.87109-.43777,1.84834-4.20464,2.59652-6.36425A10.33446,10.33446,0,0,0,44.56513,123.04441Zm-29.7927,302.3583a10.19982,10.19982,0,0,1-2.30317-.02408c-4.98716-1.18773-6.39081.95113-5.90192,5.69948,1.08868,10.5733,1.00033,21.19975,1.01183,31.81908.00331,3.04211-1.31126,6.86877.66535,8.92434,1.85435,1.9284,5.49963-.53372,8.35969.0013,4.07676.76251,5.38775-1.24014,5.54049-4.9735.44631-10.90974.15011-21.828.99745-32.7454C23.81384,425.4497,23.30991,425.41057,14.77243,425.40271Zm261.528.00164a23.53309,23.53309,0,0,1-3.68948-.02968c-4.081-.6557-5.26164.85043-4.96668,5.01495.80382,11.35011,1.15793,22.728,1.17562,34.11972.011,7.05932.28878,7.05277,7.42155,7.33882a12.25108,12.25108,0,0,1,3.20494.3c3.58175,1.14933,4.08949-.60016,4.09365-3.6719.0158-11.53665-.2062-23.06759.76648-34.60492C285.018,425.43263,284.61273,425.39842,276.30047,425.40435Z"/><path class="cls-2" d="M42.68735,315.86725c0-30.68819.10663-64.50008-.1231-98.30964-.03187-4.6885,1.4247-5.51631,5.69916-5.44936,35.485.55614,70.97871.63409,106.45919,1.36818,28.53517.59039,57.0675,1.15547,85.6075,1.415,3.16806.02883,7.17681-2.00333,9.27061.29982,1.86,2.046-.275,5.86171-.30765,8.93735-.23621,22.2248-.6345,44.44784-.9159,66.67224-.36929,29.16846-.54454,58.34017-1.06964,87.50561-.26368,14.644-1.24186,29.27417-1.61613,43.91779-.09462,3.70051-2.14705,3.336-4.50211,3.32166-28.85421-.17608-57.71017-.45908-86.56144-.5806-35.94162-.15137-71.88983.79185-107.83053,1.49878-4.25689.08368-5.049-1.17093-5.03794-5.13116C41.8544,387.21732,41.77291,353.10139,42.68735,315.86725Z"/><path class="cls-2" d="M51.06126,119.187c.39328-26.07682-.67691-52.13724-1.03735-78.20425-.05487-3.96752,1.16615-4.79572,4.91557-4.76394,20.05107.17,40.11737.50278,60.15425-.06872,29.14242-.83119,58.29145-.37251,87.42508-1.09384,8.31436-.20585,16.63587-.39163,24.94825-.69242,3.43753-.12438,4.75977.97628,4.71226,4.30034-.03075,2.149.2987,4.30051.36915,6.45409.99806,30.50393,1.661,61.02365,3.11493,91.50561.61683,12.93136-.033,25.911,1.53352,38.79535.41454,3.40919-.44074,4.7996-4.41405,4.6538-23.71019-.87025-47.44079-1.20449-71.14714-2.1532q-28.1715-1.12739-56.34859-1.87072c-17.08624-.46217-34.15293-1.79575-51.25991-1.67291-3.12342.02239-2.98588-1.67474-2.98227-3.80393Q51.08857,144.8797,51.06126,119.187ZM99.3004,116.0518c8.71708-.255,13.14037-4.93531,12.89218-13.64133a12.66913,12.66913,0,0,0-13.31893-12.283c-7.41864.207-12.90368,6.33634-12.6341,14.11814C86.47983,111.18166,92.10047,116.2624,99.3004,116.0518Zm84.62233-.066c7.71131-.05151,13.56268-5.74723,13.44368-13.08606a13.11255,13.11255,0,0,0-12.96487-12.809c-7.58366.06157-12.968,5.53044-12.96756,13.17113C171.43441,110.99665,176.38081,116.0362,183.92273,115.98581Z"/><path class="cls-3" d="M176.04778,550.19186c0-27.33209.00868-54.17461-.00551-81.01713-.004-7.58582-.06548-7.40691,7.37961-6.1243a73.86163,73.86163,0,0,0,31.15941-.87537c2.01765-.5166,2.958-.77653,2.95957,2.02062.01541,26.83845.19179,53.67679.32057,80.51518.00713,1.48753.00091,2.97516.00091,4.62966C199.68826,542.46462,189.69426,543.98291,176.04778,550.19186Z"/><path class="cls-3" d="M112.03024,550.03732c-14.32455-6.81517-28.20052-7.22455-42.25806.40871V463.90182a91.3281,91.3281,0,0,0,39.99726.6169c1.45165-.297,2.41814.02788,2.41412,1.76471-.00215.924.159,1.84833.15841,2.77244q-.02651,39.60127-.08114,79.2025A16.88306,16.88306,0,0,1,112.03024,550.03732Z"/><path class="cls-3" d="M145.53544,206.72041q-23.35849,0-46.717.00257c-1.7023.00049-3.30165.28985-3.35523-2.41663-.12492-6.31-.46847-12.62031-.91254-18.91713-.19136-2.71333.41-3.81318,3.45016-3.6909q34.64352,1.39338,69.29874,2.489c8.4751.27244,16.96025.3484,25.43968.30362,2.80142-.01479,3.83082.77056,3.57663,3.68519-.45529,5.22035-.70721,10.46714-.799,15.70717-.05251,2.99794-1.192,3.84883-4.17888,3.819-15.266-.15264-30.53422-.07054-45.80169-.07054Z"/><path class="cls-4" d="M255.58932,268.35375c.92607-14.71023,1.25885-31.32663,1.0812-47.95421-.055-5.14274,3.51511-7.5529,8.45584-5.76527a19.59211,19.59211,0,0,1,9.97217,8.60673c10.07067,16.49586,11.57689,33.84771,3.9212,51.63581-4.02432,9.3506-10.68745,12.60065-20.74376,11.5345-2.28638-.24241-2.77491-1.1839-2.72121-3.22545C255.66814,278.87729,255.58932,274.56369,255.58932,268.35375Z"/><path class="cls-4" d="M35.40142,248.40338c-.00491,10.48538-.10853,20.97239.05992,31.45505.04884,3.0388-.94113,3.77962-3.902,3.958-8.8744.53478-14.95731-3.35222-18.24722-11.291-7.4914-18.07718-5.64969-35.52429,4.56107-52.06337a19.64074,19.64074,0,0,1,10.06009-8.53036c4.82659-1.71871,7.43623.01077,7.45875,5.01577C35.43922,227.43261,35.40633,237.91807,35.40142,248.40338Z"/><path class="cls-4" d="M125.16036,434.76545c-4.00251,7.10586-8.06252,14.18012-11.9857,21.32952-2.33044,4.24685-6.53252,4.17136-10.40983,4.72788a82.73557,82.73557,0,0,1-29.3634-1.00757,6.978,6.978,0,0,1-5.44522-4.364c-2.74673-6.36778-5.71348-12.64052-8.57636-18.95843-.68628-1.51449-1.98754-3.39913,1.23984-3.40371q32.08863-.04521,64.17745-.01555Z"/><path class="cls-4" d="M91.90688,581.94987A92.68265,92.68265,0,0,1,65.824,579.33151c-4.7849-1.16963-5.62168-2.461-4.15333-7.42065,3.21743-10.86744,10.47916-18.08657,21.49153-19.98534,10.54337-1.81791,21.20566-1.825,29.64541,7.07878,4.62813,4.88241,6.22465,10.83171,7.57849,17.01261.49811,2.27395-1.00673,2.78054-2.86458,3.25263A88.32588,88.32588,0,0,1,91.90688,581.94987Z"/><path class="cls-4" d="M198.24364,581.94552a91.49177,91.49177,0,0,1-25.62762-2.55215c-5.15478-1.27113-5.93683-2.46439-4.389-7.63365,3.19722-10.67785,10.32121-17.8039,21.14606-19.75752,10.89882-1.96686,21.84268-1.94577,30.36606,7.4544,4.38855,4.84,5.88226,10.68747,7.15058,16.72333.49655,2.36295-1.27364,2.65082-3.03119,3.10923A86.7544,86.7544,0,0,1,198.24364,581.94552Z"/><path class="cls-4" d="M162.23414,433.25706c22.26518-2.45534,44.17054-.45479,66.50754-.51461a135.62805,135.62805,0,0,1-10.63149,21.26562,4.69569,4.69569,0,0,1-2.9022,2.08068c-12.53408,3.54225-25.11032,4.08361-37.73634.59338-1.26241-.34894-2.64979-.63907-3.48874-2.00818C169.75138,447.7678,165.85418,440.68913,162.23414,433.25706Z"/><path class="cls-4" d="M254.77884,102.43968c0,8.68665.08131,15.16385-.02315,21.63811a9.40634,9.40634,0,0,1-12.552,8.5006c-1.72409-.633-1.23381-1.92241-1.26643-3.0334-.34357-11.7-.601-23.40248-.96685-35.10165q-.33927-10.85154-.9363-21.69426c-.152-2.74389.29889-4.16234,3.64285-4.0897,6.30471.13694,9.75125,2.75311,11.18767,9.26629C255.81717,86.77938,254.5588,95.74,254.77884,102.43968Z"/><path class="cls-4" d="M44.56513,123.04441a10.33446,10.33446,0,0,1-.0564,3.21643c-.74818,2.15961,2.27457,5.92648-2.59652,6.36425-7.1079.63876-11.80865-1.26185-11.83-5.73974-.07864-16.44917-1.75069-32.9528.73956-49.34048.842-5.54088,4.63693-8.63832,9.12485-8.85381,2.68193-.12875,3.82524.52723,3.76368,3.53492-.1797,8.77956-.02806,17.56574-.01855,26.34934q.01324,12.233.00188,24.46592Z"/><path class="cls-4" d="M14.77243,425.40356c8.53748.007,9.04141.04614,8.36972,8.70037-.84734,10.91743-.55114,21.83566-.99745,32.7454-.15274,3.73336-1.46373,5.736-5.54049,4.9735-2.86006-.535-6.50534,1.9271-8.35969-.0013-1.97661-2.05557-.662-5.88223-.66535-8.92434-.0115-10.61933.07685-21.24578-1.01183-31.81908-.48889-4.74835.91476-6.88721,5.90192-5.69948A10.24882,10.24882,0,0,0,14.77243,425.40356Z"/><path class="cls-4" d="M276.30047,425.40435c8.31226-.00593,8.71753.02828,8.00608,8.467-.97268,11.53733-.75068,23.06827-.76648,34.60492-.00416,3.07174-.5119,4.82123-4.09365,3.6719a12.25108,12.25108,0,0,0-3.20494-.3c-7.13277-.286-7.41058-.2795-7.42155-7.33882-.01769-11.39173-.3718-22.76961-1.17562-34.11972-.295-4.16452.88572-5.67065,4.96668-5.01495A23.53309,23.53309,0,0,0,276.30047,425.40435Z"/><path class="cls-1" d="M99.3004,116.0518c-7.19993.2106-12.82057-4.87014-13.06085-11.80623C85.97,96.46377,91.455,90.33446,98.87365,90.12743a12.66913,12.66913,0,0,1,13.31893,12.283C112.44077,111.11649,108.01748,115.79681,99.3004,116.0518Z"/><path class="cls-1" d="M183.92273,115.98581c-7.54192.05039-12.48832-4.98916-12.48875-12.72392-.00045-7.64069,5.3839-13.10956,12.96756-13.17113a13.11255,13.11255,0,0,1,12.96487,12.809C197.48541,110.23858,191.634,115.9343,183.92273,115.98581Z"/></g></g></svg>