<svg xmlns="http://www.w3.org/2000/svg" viewBox="0 0 464.50731 587.9405"><defs><style>.cls-1{fill:#200f0e;}.cls-2{fill:#db282f;}.cls-3{fill:#a6abad;}.cls-4{fill:#d9282e;}</style></defs><g id="Layer_2" data-name="Layer 2"><g id="Layer_1-2" data-name="Layer 1"><path class="cls-1" d="M360.49051,284.77818c-7.1783,9.49129-16.76269,9.85083-27.0586,8.73653-.17332,10.611-.61234,21.10386-.784,31.56529-.5551,33.82284-1.68967,67.64363-1.20579,101.47971.07659,5.35674-1.04752,7.15429-6.37391,6.40007-9.17111-1.29861-13.74567,2.12221-17.46306,10.661-4.09746,9.41192-7.05379,18.29179-6.942,28.8582.27294,25.7961,1.1292,51.58292,1.20686,77.38026a15.49075,15.49075,0,0,0,3.11342,9.82254c4.35406,5.6514,5.03733,12.72687,7.04457,19.27764.79042,2.57962-1.04531,3.56065-3.07992,4.1919a104.67952,104.67952,0,0,1-40.1637,4.412c-8.26705-.69888-16.5018-1.62807-24.52335-4.08835-3.95214-1.212-4.976-3.17516-4.24069-7.11491,1.32-7.0732,3.2007-13.8213,8.15855-19.28992,1.10239-1.21587.8346-2.55489.835-3.90369.00758-28.73546-.17056-57.4729.14486-86.20491.06907-6.29012-1.10945-11.69723-4.7856-16.69621a66.72441,66.72441,0,0,1-7.27786-13.353c-1.1942-2.7808-2.69278-3.35529-5.547-3.18089-6.31309.38572-12.6568.36913-18.9867.32392a4.07672,4.07672,0,0,0-4.26552,2.49134c-3.60561,6.96716-7.37957,13.84858-11.18458,20.70992a8.52879,8.52879,0,0,0-.93449,4.39347q-.03819,46.1181-.1753,92.23614a6.02767,6.02767,0,0,0,1.31355,4.2413c5.07172,5.98353,5.98269,13.62506,8.12688,20.76526.76462,2.54629-.93461,3.58618-3.01471,4.23718a104.82289,104.82289,0,0,1-40.16086,4.445c-8.42516-.68677-16.82656-1.62377-24.96741-4.21584-3.44191-1.096-4.62841-2.90207-3.9621-6.48168,1.31084-7.0418,2.98806-13.89068,7.9328-19.39206a5.57569,5.57569,0,0,0,1.19968-4.257c-.42709-29.204.7149-58.39168.96645-87.589a19.51568,19.51568,0,0,0-2.6529-10.9176,80.08484,80.08484,0,0,1-7.84421-18.14444c-.67321-2.1788-1.79075-3.27137-4.268-3.02328-2.6016.26042-5.24562.06847-7.869.14543-5.83346.17113-7.08813-.98754-7.08773-6.83117.003-43.41556-.05154-86.83146.14243-130.2462.01935-4.32925-.71427-5.88794-5.366-5.471A21.25194,21.25194,0,0,1,89.42346,283.087c-19.04428,42.95379-35.0656,86.745-52.902,129.8002-1.23719,2.98649-.62128,3.73857,2.17231,4.557,14.06176,4.11935,12.1848,2.92968,7.53642,15.58275-5.57263,15.16892-11.21054,30.32-18.07183,44.97907-1.31989,2.82-2.56183,4.1519-5.936,2.45546-5.76428-2.898-11.87724-5.09835-17.66579-7.95288-4.79952-2.36679-5.32616-4.90974-3.78374-9.85734,5.073-16.273,11.59005-32.08237,15.65629-48.67372.92652-3.78045,2.7855-4.926,6.28227-2.87909.92567.54184,2.0013.83288,2.91034,1.39668,2.10391,1.30466,2.69759.23518,3.34879-1.67278,5.95916-17.45915,12.76417-34.60241,19.84834-51.62463q16.9274-40.674,34.34957-81.14087c.98-2.28887.63775-4.05683-.04593-6.14345-5.65409-17.25649-4.19612-34.00725,3.80117-50.22517a34.89265,34.89265,0,0,1,11.01232-12.931c4.70743-3.39558,9.98688-4.91037,15.715-2.72789,2.55657.97407,5.16716.71388,7.744.73026,14.67128.0932,29.34386.0045,44.01458.13748,2.69968.02445,3.61138-.32991,3.36028-3.45123-.49446-6.14608-.39473-12.35-.3161-18.52719.03037-2.38631-.64012-3.09679-3.08678-3.13326-11.731-.17486-23.4583-.58259-35.18751-.88285-5.87079-.1503-7.02726-1.21047-7.07743-7.12094-.09323-10.9692-.19748-21.94061-.05357-32.90792.03733-2.84582-.64781-3.91083-3.55482-3.54871a27.05667,27.05667,0,0,1-6.014.00257,12.217,12.217,0,0,1-10.82514-11.358,260.11087,260.11087,0,0,1,.81893-47.09355c.3889-3.26232,1.25489-6.58187,3.56194-8.87136,2.862-2.84016,3.07772-5.8903,2.73232-9.57035-.96844-10.31912-.57377-20.68555-.64125-31.03544-.03128-4.79146.59316-9.43544-2.11376-14.16592-1.97935-3.45895-1.32577-8.07619.955-11.934A5.72025,5.72025,0,0,1,113.262.22111c2.09622.04607,3.33556,1.60533,4.08259,3.31572,1.78278,4.08148,2.754,8.46414-.00736,12.32317-1.61754,2.26043-1.75811,4.42068-1.7563,6.86233.00888,12.35973.04372,24.71973-.03575,37.079-.017,2.64066-.25852,4.511,3.6155,4.48072,4.31361-.03376,2.80552-2.78762,2.83409-4.66368.11777-7.7232.12728-15.45124-.016-23.17393-.074-3.98884.55057-5.98773,5.52155-5.07293,3.97794.732,8.27689-.47293,12.43568-.50416,56.98114-.42771,113.94588-2.18656,170.93426-2.12069,4.4927.00519,5.90123,1.576,5.90842,5.94884.01465,8.94924.62665,17.89613.757,26.84742.03519,2.418.91594,3.06083,2.97647,2.58874,1.723-.39475,4.566,1.43689,4.53643-2.55616-.10307-13.90434-.06421-27.81014.01069-41.71491.01012-1.88386-1.28052-3.069-1.8247-4.63693-1.42075-4.09372-1.6826-8.19864.39988-12.08895,2.1439-4.00489,7.08688-4.23776,9.25822-.32038,2.32391,4.19281,3.23068,8.8989.35287,13.13652a10.51293,10.51293,0,0,0-1.73933,6.402q-.08639,20.85565-.28856,41.71059a3.91433,3.91433,0,0,0,1.1141,3.30214c4.99349,4.67407,6.30331,10.90947,6.513,17.273.42623,12.93942,1.16591,25.87561.2046,38.847-.69906,9.43377-4.99649,14.06367-14.53122,13.79329-4.01148-.11377-4.87425.65839-4.58236,4.95988.88777,13.08341.92646,26.22275,1.42245,39.3355.16218,4.286-2.37827,4.94059-5.65777,4.61008-10.93811-1.10231-21.92973-.17744-32.86564-.96052-2.673-.19139-3.43506.415-3.31219,3.14132.24335,5.39712.23441,10.81752.03733,16.21758-.098,2.68259.81559,3.27389,3.37,3.30691,13.89631.17984,27.78962.58159,41.68485.86312,4.9914.10113,9.83374.83277,14.98478-.66232,5.45248-1.58266,10.56912,1.2047,14.6758,5.12215,12.48184,11.90641,15.75076,27.16833,15.39,43.56773a50.16242,50.16242,0,0,1-3.476,18.10245c-.72621,1.76406-.22163,3.18405.46341,4.82919,15.84635,38.05933,32.47877,75.79208,47.3464,114.25942,2.76343,7.15011,6.3118,13.99368,9.21009,21.09631,1.12546,2.758,2.31,2.5455,4.31327,1.19262a36.17787,36.17787,0,0,1,3.7141-1.83434c3.10024-1.6051,4.82917-.11154,6.30693,2.53254,5.40039,9.66216,10.88845,19.27509,16.34246,28.9072,3.1878,5.62962,6.32356,11.2895,9.5797,16.87922,1.84478,3.16691,1.26507,5.51779-1.94864,7.24546-6.78572,3.64775-13.58705,7.26657-20.34743,10.96072-3.63638,1.98708-5.93755.95772-7.78922-2.66292-7.50357-14.67212-15.21529-29.2378-22.71535-43.91179-2.72644-5.33445-2.38138-6.76163,2.84512-9.67269,3.60188-2.00626,3.818-3.66682,1.96312-7.34676-11.22978-22.28049-19.60889-45.76809-28.75189-68.93975C378.42364,327.38715,369.51359,306.59891,360.49051,284.77818Zm-239.40019,31.867c-.922,36.81567-.76926,70.649-.97177,104.48013-.02953,4.928,1.45067,5.73837,5.95763,5.64132,32.56945-.70114,65.14377-1.413,97.71894-1.55213,31.96265-.13655,63.92819.3993,95.89243.63907,2.29064.0172,4.28312.48174,4.59837-3.24483,1.23809-14.63653.97335-29.31924,1.45627-43.9655.96679-29.32461.82956-58.685,1.20438-88.03.28606-22.3956.68684-44.78975.95729-67.18552.03354-2.77592,1.99762-6.1493.34608-8.07893-1.9156-2.23825-5.512-.29877-8.36339-.31905-28.56238-.20341-57.11549-.81237-85.67227-1.38647-36.27971-.72932-72.57215-.815-108.85707-1.32249-3.50283-.049-4.35915.97-4.34608,4.412C121.14169,251.03251,121.09032,285.3329,121.09032,316.6452ZM173.13624,35.22477l.00017,1.09154c-13.2761,0-26.55486.14757-39.82661-.09276-3.82481-.06927-4.95638.91209-4.87,4.8185.44043,19.908.67615,39.82172.81609,59.73466.16292,23.16405.16982,46.32934.1916,69.49415.00237,2.51124-.07394,4.19556,3.50062,4.26533,23.12314.45136,46.25459.89225,69.3538,1.969,10.6391.49592,21.27565.47674,31.90575.91991,26.02867,1.08522,52.052,2.30737,78.10462,2.74289,2.59707.0434,3.67151-.58375,3.462-3.28982-.38058-4.9182-.74748-9.84778-.82458-14.77727-.275-17.58423-1.0405-35.14781-1.76881-52.71725-.90717-21.88581-1.3928-43.78906-2.08773-65.68391-.05855-1.8443-.49457-3.68576-.45452-5.52195.06607-3.02968-1.29291-3.79482-4.2-3.78757-9.10589.02274-18.19713.68292-27.28374.74159C243.81661,35.36,208.476,35.22477,173.13624,35.22477ZM148.309,464.23225v86.54637c14.16331-7.56361,28.05475-7.13268,42.23559-.30191.07829-1.38.18594-2.404.1873-3.42806q.04954-38.473.07139-76.94611c.00062-1.07939-.16456-2.15968-.148-3.23793.02975-1.94667-.937-2.2982-2.6533-1.955A90.10208,90.10208,0,0,1,148.309,464.23225Zm147.83885-2.44754a74.75619,74.75619,0,0,1-39.32163.33059c-3.11636-.82993-2.30609,1.47138-2.30558,2.97892q.01425,40.76447.10561,81.52888c.00328,1.26386-.52986,2.71589.71168,3.954,13.43273-7.36254,27.05837-6.71477,40.80992-.74867ZM223.43026,206.86589l.00062.91052c15.434,0,30.86909-.094,46.30126.07572,3.263.03588,4.31129-1.02047,4.33426-4.16223.0349-4.77981.26954-9.5747.75285-14.32922.35615-3.50321-.50051-4.87618-4.35626-4.79478-8.47963.17894-16.974-.04575-25.4557-.31579q-34.45128-1.09683-68.8956-2.40544c-2.3889-.08919-3.29851.56524-3.11885,3.07942.43913,6.14757.86791,12.31068.87448,18.468.00316,2.98047,1.01617,3.55111,3.73532,3.53029C192.87777,206.8052,208.15421,206.86589,223.43026,206.86589Zm110.73409,63.93293c0,4.17171.07161,8.34522-.03134,12.51438-.049,1.98416.30835,3.03649,2.65409,3.30455,10.21965,1.16789,16.50927-1.752,20.63768-11.13187,7.90756-17.96618,6.41645-35.51988-3.82238-52.21524a19.42522,19.42522,0,0,0-10.06765-8.56153c-4.381-1.5306-8.27112.6431-8.28272,4.67653C335.2027,236.52879,335.48073,253.67675,334.16435,270.79882Zm-220.357-22.10008c0-10.49247.03133-20.98508-.01335-31.47735-.02207-5.17594-2.78352-6.90825-7.78623-4.9972a20.09135,20.09135,0,0,0-9.93964,8.68526c-10.01691,16.45749-11.79969,33.77668-4.41458,51.70535,3.2705,7.9399,9.28238,11.87115,18.186,11.42364,3.33612-.1677,4.07156-1.23565,4.02133-4.32613C113.69294,269.37685,113.79725,259.03694,113.80738,248.69874Zm56.41518,185.40862.00091-.73278c-9.87917,0-19.76038.11607-29.63649-.05817-3.85869-.06808-4.06726,1.117-2.53151,4.23638,2.92844,5.94782,5.62089,12.01645,8.258,18.10132a6.99282,6.99282,0,0,0,5.36729,4.47265,95.91849,95.91849,0,0,0,29.85484,1.12278c6.26355-.63713,10.03671-3.53575,12.619-9.06865a139.85209,139.85209,0,0,1,7.86034-14.15252c1.84364-2.98859,1.85275-4.06458-2.13978-3.98536C189.99442,434.239,180.10722,434.10736,170.22256,434.10736Zm106.6932,148.26623a87.25032,87.25032,0,0,0,25.74249-2.68075c1.9104-.48242,3.20743-1.084,2.77526-3.33622-1.38941-7.241-3.73509-13.90607-9.6697-18.9136-8.46787-7.145-18.39257-6.78488-28.10939-4.9489-10.86672,2.05334-17.858,9.27888-21.011,19.93407-1.46318,4.9446-.62343,6.16144,4.27593,7.35819A92.82872,92.82872,0,0,0,276.91576,582.37359Zm-106.70208.00769A88.59794,88.59794,0,0,0,196.1291,579.685c1.9397-.49034,3.205-1.16517,2.704-3.37741-1.36345-6.02155-2.87911-11.85675-7.34608-16.65009-8.64458-9.276-19.5565-9.20051-30.4652-7.14977-10.87447,2.0444-17.83968,9.31454-20.97363,19.97165-1.45022,4.93159-.61257,6.10049,4.34042,7.31892A92.36834,92.36834,0,0,0,170.21368,582.38128Zm70.21991-148.77695c3.69979,6.58835,7.35026,12.77673,10.66636,19.13957a8.7383,8.7383,0,0,0,6.32385,4.69962,70.48826,70.48826,0,0,0,35.98709-.92591,4.73394,4.73394,0,0,0,3.04265-1.88414,131.05587,131.05587,0,0,0,10.83018-21.59095C284.98143,433.178,263.13564,431.124,240.43359,433.60433ZM42.23081,426.964c.10691-1.70685-1.302-1.80016-2.43178-2.15424-5.43823-1.70419-10.84234-3.51872-15.76767-6.44144-2.67417-1.58682-3.30558-.95053-4.06217,2.0676-3.663,14.61231-7.35694,29.23972-12.78922,43.32485-.81865,2.12277-.514,3.03674,1.35315,3.871,3.64577,1.62887,7.412,3.05577,10.86706,5.0249,3.57382,2.03671,5.17089.972,6.15188-2.66229,3.78431-14.01937,9.47353-27.309,15.64837-40.40734C41.59329,428.75373,41.87817,427.86941,42.23081,426.964Zm397.75237,47.45762c.61772-.33133,1.30354-.67749,1.96889-1.05964,3.87363-2.22475,7.6727-4.59278,11.63774-6.6395,2.50424-1.29284,2.29109-2.55291,1.06335-4.71338q-10.5005-18.476-20.70833-37.1174c-.94592-1.72626-1.63819-2.22221-3.47426-1.27779-4.10759,2.1131-8.30738,4.04868-12.48953,6.01431-1.41577.66555-2.22559,1.20054-1.21982,3.06035,7.17807,13.27323,14.22819,26.61568,21.33363,39.92836C438.49942,473.375,438.6965,474.40734,439.98318,474.42166ZM333.35108,102.36944c-.268-6.9117,1.02427-15.72624-.91679-24.4336-1.44914-6.50056-4.89885-9.17694-11.22774-9.22232-2.83244-.02032-3.8024.76132-3.62953,3.64319.45208,7.53726.71965,15.08732.95576,22.63553.36152,11.554.623,23.111.96487,34.66567.033,1.11566-.43387,2.39543,1.29856,3.01273a9.38351,9.38351,0,0,0,12.532-8.5458C333.43084,117.49128,333.35108,110.85483,333.35108,102.36944Zm-225.18733-.048c0,7.70035-.01318,13.71491.00317,19.72945.024,8.85848,2.04689,10.63677,10.92923,10.75793,3.48427.04753,4.04407-1.29089,3.92567-4.30483q-.63511-16.16916-.91436-32.35172-.21492-12.02553-.00718-24.05668c.04718-2.67891-.89066-3.44318-3.455-3.37593-4.73277.1241-8.222,3.287-9.52409,9.02192C107.147,86.43657,108.4144,95.24969,108.16375,102.3214Z"/><path class="cls-2" d="M121.09032,316.6452c0-31.3123.05137-65.61269-.07919-99.91235-.01307-3.442.84325-4.461,4.34608-4.412,36.28492.50744,72.57736.59317,108.85707,1.32249,28.55678.5741,57.10989,1.18306,85.67227,1.38647,2.8514.02028,6.44779-1.9192,8.36339.31905,1.65154,1.92963-.31254,5.303-.34608,8.07893-.27045,22.39577-.67123,44.78992-.95729,67.18552-.37482,29.34492-.23759,58.70535-1.20438,88.03-.48292,14.64626-.21818,29.329-1.45627,43.9655-.31525,3.72657-2.30773,3.262-4.59837,3.24483-31.96424-.23977-63.92978-.77562-95.89243-.63907-32.57517.13916-65.14949.851-97.71894,1.55213-4.507.097-5.98716-.7133-5.95763-5.64132C120.32106,387.29418,120.16827,353.46087,121.09032,316.6452Z"/><path class="cls-2" d="M173.13624,35.22477c35.33979,0,70.68037.13521,106.01868-.093,9.08661-.05867,18.17785-.71885,27.28374-.74159,2.90711-.00725,4.26609.75789,4.2,3.78757-.04005,1.83619.396,3.67765.45452,5.52195.69493,21.89485,1.18056,43.7981,2.08773,65.68391.72831,17.56944,1.49378,35.133,1.76881,52.71725.0771,4.92949.444,9.85907.82458,14.77727.20947,2.70607-.865,3.33322-3.462,3.28982-26.05265-.43552-52.07595-1.65767-78.10462-2.74289-10.6301-.44317-21.26665-.424-31.90575-.91991-23.09921-1.07675-46.23066-1.51764-69.3538-1.969-3.57456-.06977-3.49825-1.75409-3.50062-4.26533-.02178-23.16481-.02868-46.3301-.1916-69.49415-.13994-19.91294-.37566-39.82671-.81609-59.73466-.08638-3.90641,1.04519-4.88777,4.87-4.8185,13.27175.24033,26.55051.09276,39.82661.09276Zm-5.79347,70.287c-.21292,6.74343.31174,13.9458,2.96583,20.79749,1.54836,3.99709,3.02913,8.80789,8.19425,8.86173,5.57173.05812,7.09916-5.08734,8.23068-9.25715a72.43173,72.43173,0,0,0-1.66014-43.904,7.5646,7.5646,0,0,0-2.87408-4.06153c-4.40814-2.91918-8.27294-1.61319-11.03343,4.04755C167.62792,89.25072,167.22918,97.08989,167.34277,105.51173Zm85.25656.03576c-.1856,6.91467.34206,14.12358,3.04712,20.95438,1.57071,3.96632,3.05062,8.76144,8.3243,8.67443,5.31541-.08774,6.85116-4.99983,7.96266-9.0162a72.56143,72.56143,0,0,0-1.66229-44.34532,7.26,7.26,0,0,0-2.98015-3.97856c-4.47567-2.78592-8.18559-1.41024-10.94614,4.34662C252.85439,89.46191,252.50486,97.3019,252.59933,105.54749Zm-14.9552,48.51058c3.03259,3.43188,5.37917,6.26785,7.93421,8.90146,1.24262,1.28079,2.97919,1.88759,4.51516.34166a3.18426,3.18426,0,0,0,.0887-4.6103,128.91658,128.91658,0,0,0-13.8-13.64186,3.18,3.18,0,0,0-3.89643-.24463,3.14491,3.14491,0,0,0-1.47618,3.56993,8.75026,8.75026,0,0,1,.01154,4.58285c-2.5431-2.79811-4.70494-5.17721-6.86729-7.55588-1.136-1.24963-2.50119-1.87568-4.13367-1.1669-1.528.66348-1.61381,2.09024-1.5922,3.53423.02862,1.91464.007,3.83.007,6.34552-3.3743-2.3587-4.87679-5.31365-7.11081-7.57815-1.26519-1.28237-2.66178-2.28853-4.49146-1.4722-1.81338.80906-2.18922,2.38657-1.80314,4.26878.33278,1.62205.58734,3.29189-.731,4.46275-2.43806-2.25613-4.77118-4.472-7.17462-6.60889a2.2135,2.2135,0,0,0-2.95876-.23338,1.38836,1.38836,0,0,0-.15154,2.06132c3.50961,5.05291,6.47623,10.50467,10.83679,14.93422a2.87759,2.87759,0,0,0,3.328.96241,3.22114,3.22114,0,0,0,1.90983-3.37835c-.01635-1.89795-.004-3.79618-.004-6.428,3.46425,3.48426,6.22887,6.34581,9.09339,9.10349a3.20526,3.20526,0,0,0,3.852.69282,3.51882,3.51882,0,0,0,1.71207-3.9621c-.27735-1.6833-1.26971-3.34357-.16014-5.45766a44.38139,44.38139,0,0,0,8.607,8.03457,2.906,2.906,0,0,0,3.43173.34683c1.24827-.73883,1.33821-1.93493,1.28136-3.23048C237.82787,158.94687,236.5827,157.45071,237.64413,154.05807Z"/><path class="cls-3" d="M148.309,464.23225a90.10208,90.10208,0,0,0,39.69294.67732c1.71631-.34316,2.68305.00837,2.6533,1.955-.01652,1.07825.14866,2.15854.148,3.23793q-.02174,38.473-.07139,76.94611c-.00136,1.02409-.109,2.04808-.1873,3.42806-14.18084-6.83077-28.07228-7.2617-42.23559.30191Z"/><path class="cls-3" d="M296.14785,461.78471v88.04372c-13.75155-5.9661-27.37719-6.61387-40.80992.74867-1.24154-1.23811-.7084-2.69014-.71168-3.954q-.10648-40.76439-.10561-81.52888c-.00051-1.50754-.81078-3.80885,2.30558-2.97892A74.75619,74.75619,0,0,0,296.14785,461.78471Z"/><path class="cls-3" d="M223.43026,206.86589c-15.276,0-30.55249-.06069-45.82762.05648-2.71915.02082-3.73216-.54982-3.73532-3.53029-.00657-6.15731-.43535-12.32042-.87448-18.468-.17966-2.51418.73-3.16861,3.11885-3.07942q34.44474,1.28616,68.8956,2.40544c8.48167.27,16.97607.49473,25.4557.31579,3.85575-.0814,4.71241,1.29157,4.35626,4.79478-.48331,4.75452-.718,9.54941-.75285,14.32922-.023,3.14176-1.07128,4.19811-4.33426,4.16223-15.43217-.16968-30.86722-.07572-46.30126-.07572Z"/><path class="cls-4" d="M334.16435,270.79882c1.31638-17.12207,1.03835-34.27,1.08768-51.41318.0116-4.03343,3.90168-6.20713,8.28272-4.67653a19.42522,19.42522,0,0,1,10.06765,8.56153c10.23883,16.69536,11.72994,34.24906,3.82238,52.21524-4.12841,9.37987-10.418,12.29976-20.63768,11.13187-2.34574-.26806-2.70308-1.32039-2.65409-3.30455C334.236,279.144,334.16435,274.97053,334.16435,270.79882Z"/><path class="cls-4" d="M113.80229,248.69874c-.005,10.3382-.10935,20.67811.05866,31.01357.05023,3.09048-.68521,4.15843-4.02133,4.32613-8.90366.44751-14.91554-3.48374-18.186-11.42364-7.38511-17.92867-5.60233-35.24786,4.41458-51.70535a20.09135,20.09135,0,0,1,9.93964-8.68526c5.00271-1.911,7.76416-.17874,7.78623,4.9972C113.83871,227.71366,113.80738,238.20627,113.80229,248.69874Z"/><path class="cls-4" d="M170.22256,434.10736c9.88466,0,19.77186.13168,29.65261-.06435,3.99253-.07922,3.98342.99677,2.13978,3.98536a139.85209,139.85209,0,0,0-7.86034,14.15252c-2.5823,5.5329-6.35546,8.43152-12.619,9.06865a95.91849,95.91849,0,0,1-29.85484-1.12278,6.99282,6.99282,0,0,1-5.36729-4.47265c-2.63711-6.08487-5.32956-12.1535-8.258-18.10132-1.53575-3.11937-1.32718-4.30446,2.53151-4.23638,9.87611.17424,19.75732.05817,29.63649.05817Z"/><path class="cls-4" d="M276.91576,582.37359a92.82872,92.82872,0,0,1-25.99643-2.58721c-4.89936-1.19675-5.73911-2.41359-4.27593-7.35819,3.153-10.65519,10.1443-17.88073,21.011-19.93407,9.71682-1.836,19.64152-2.19612,28.10939,4.9489,5.93461,5.00753,8.28029,11.67255,9.6697,18.9136.43217,2.25225-.86486,2.8538-2.77526,3.33622A87.25032,87.25032,0,0,1,276.91576,582.37359Z"/><path class="cls-4" d="M170.21368,582.38128a92.36834,92.36834,0,0,1-25.825-2.583c-4.953-1.21843-5.79064-2.38733-4.34042-7.31892,3.13395-10.65711,10.09916-17.92725,20.97363-19.97165,10.9087-2.05074,21.82062-2.12628,30.4652,7.14977,4.467,4.79334,5.98263,10.62854,7.34608,16.65009.501,2.21224-.76434,2.88707-2.704,3.37741A88.59794,88.59794,0,0,1,170.21368,582.38128Z"/><path class="cls-4" d="M240.43359,433.60433c22.70205-2.48036,44.54784-.42634,66.85013-.56181a131.05587,131.05587,0,0,1-10.83018,21.59095,4.73394,4.73394,0,0,1-3.04265,1.88414,70.48826,70.48826,0,0,1-35.98709.92591A8.7383,8.7383,0,0,1,251.1,452.7439C247.78385,446.38106,244.13338,440.19268,240.43359,433.60433Z"/><path class="cls-4" d="M42.23081,426.964c-.35264.90537-.63752,1.78969-1.03038,2.623-6.17484,13.09832-11.86406,26.388-15.64837,40.40734-.981,3.63427-2.57806,4.699-6.15188,2.66229-3.45508-1.96913-7.22129-3.396-10.86706-5.0249-1.86712-.83424-2.1718-1.74821-1.35315-3.871,5.43228-14.08513,9.12625-28.71254,12.78922-43.32485.75659-3.01813,1.388-3.65442,4.06217-2.0676,4.92533,2.92272,10.32944,4.73725,15.76767,6.44144C40.92885,425.16388,42.33772,425.25719,42.23081,426.964Z"/><path class="cls-4" d="M439.98318,474.42166c-1.28668-.01432-1.48376-1.04662-1.88833-1.80469-7.10544-13.31268-14.15556-26.65513-21.33363-39.92836-1.00577-1.85981-.19595-2.3948,1.21982-3.06035,4.18215-1.96563,8.38194-3.90121,12.48953-6.01431,1.83607-.94442,2.52834-.44847,3.47426,1.27779q10.21236,18.63693,20.70833,37.1174c1.22774,2.16047,1.44089,3.42054-1.06335,4.71338-3.965,2.04672-7.76411,4.41475-11.63774,6.6395C441.28672,473.74417,440.6009,474.09033,439.98318,474.42166Z"/><path class="cls-4" d="M333.35108,102.36944c0,8.48539.07976,15.12184-.02291,21.7554a9.38351,9.38351,0,0,1-12.532,8.5458c-1.73243-.6173-1.26552-1.89707-1.29856-3.01273-.34184-11.55465-.60335-23.1117-.96487-34.66567-.23611-7.54821-.50368-15.09827-.95576-22.63553-.17287-2.88187.79709-3.66351,3.62953-3.64319,6.32889.04538,9.7786,2.72176,11.22774,9.22232C334.37535,86.6432,333.08312,95.45774,333.35108,102.36944Z"/><path class="cls-4" d="M108.16375,102.3214c.25065-7.07171-1.01674-15.88483.95741-24.57986,1.30207-5.73492,4.79132-8.89782,9.52409-9.02192,2.56437-.06725,3.50221.697,3.455,3.37593q-.212,12.025.00718,24.05668.28919,16.17939.91436,32.35172c.1184,3.01394-.4414,4.35236-3.92567,4.30483-8.88234-.12116-10.90524-1.89945-10.92923-10.75793C108.15057,116.03631,108.16375,110.02175,108.16375,102.3214Z"/><path class="cls-1" d="M167.34277,105.51173c-.11359-8.42184.28515-16.261,3.82311-23.516,2.76049-5.66074,6.62529-6.96673,11.03343-4.04755a7.5646,7.5646,0,0,1,2.87408,4.06153,72.43173,72.43173,0,0,1,1.66014,43.904c-1.13152,4.16981-2.659,9.31527-8.23068,9.25715-5.16512-.05384-6.64589-4.86464-8.19425-8.86173C167.65451,119.45753,167.12985,112.25516,167.34277,105.51173Z"/><path class="cls-1" d="M252.59933,105.54749c-.09447-8.24559.25506-16.08558,3.7455-23.36465,2.76055-5.75686,6.47047-7.13254,10.94614-4.34662a7.26,7.26,0,0,1,2.98015,3.97856,72.56143,72.56143,0,0,1,1.66229,44.34532c-1.1115,4.01637-2.64725,8.92846-7.96266,9.0162-5.27368.087-6.75359-4.70811-8.3243-8.67443C252.94139,119.67107,252.41373,112.46216,252.59933,105.54749Z"/><path class="cls-1" d="M237.64413,154.05807c-1.06143,3.39264.18374,4.8888.25761,6.574.05685,1.29555-.03309,2.49165-1.28136,3.23048a2.906,2.906,0,0,1-3.43173-.34683,44.38139,44.38139,0,0,1-8.607-8.03457c-1.10957,2.11409-.11721,3.77436.16014,5.45766a3.51882,3.51882,0,0,1-1.71207,3.9621,3.20526,3.20526,0,0,1-3.852-.69282c-2.86452-2.75768-5.62914-5.61923-9.09339-9.10349,0,2.63185-.01239,4.53008.004,6.428a3.22114,3.22114,0,0,1-1.90983,3.37835,2.87759,2.87759,0,0,1-3.328-.96241c-4.36056-4.42955-7.32718-9.88131-10.83679-14.93422a1.38836,1.38836,0,0,1,.15154-2.06132,2.2135,2.2135,0,0,1,2.95876.23338c2.40344,2.13686,4.73656,4.35276,7.17462,6.60889,1.31831-1.17086,1.06375-2.8407.731-4.46275-.38608-1.88221-.01024-3.45972,1.80314-4.26878,1.82968-.81633,3.22627.18983,4.49146,1.4722,2.234,2.2645,3.73651,5.21945,7.11081,7.57815,0-2.51553.02161-4.43088-.007-6.34552-.02161-1.444.0642-2.87075,1.5922-3.53423,1.63248-.70878,2.99768-.08273,4.13367,1.1669,2.16235,2.37867,4.32419,4.75777,6.86729,7.55588a8.75026,8.75026,0,0,0-.01154-4.58285,3.14491,3.14491,0,0,1,1.47618-3.56993,3.18,3.18,0,0,1,3.89643.24463,128.91658,128.91658,0,0,1,13.8,13.64186,3.18426,3.18426,0,0,1-.0887,4.6103c-1.536,1.54593-3.27254.93913-4.51516-.34166C243.0233,160.32592,240.67672,157.49,237.64413,154.05807Z"/></g></g></svg>