<svg xmlns="http://www.w3.org/2000/svg" viewBox="0 0 334.78768 588.90488"><defs><style>.cls-1{fill:#200f0e;}.cls-2{fill:#db282f;}.cls-3{fill:#a6abad;}.cls-4{fill:#d9282e;}</style></defs><g id="Layer_2" data-name="Layer 2"><g id="Layer_1-2" data-name="Layer 1"><path class="cls-1" d="M306.02719,281.06749c-7.20115,12.45213-17.6644,14.7399-29.92958,12.83458-.17666,10.81524-.62561,21.32619-.79785,31.80821-.55672,33.87964-1.69462,67.75724-1.20012,101.6502.07479,5.11938-.99909,6.26951-6.05961,6.45479a17.92339,17.92339,0,0,1-4.62687.03894c-6.14789-1.44928-8.40195,1.98808-11.40977,6.81335-7.90076,12.67443-8.83832,26.17666-8.68229,40.58382.25156,23.2095,1.281,46.40467,1.17372,69.61768a14.61157,14.61157,0,0,0,2.908,9.43623c4.4927,5.77057,5.26868,12.9856,7.26653,19.71155.79536,2.67747-1.26334,3.50595-3.22176,4.11632a103.96415,103.96415,0,0,1-39.78037,4.41316c-8.2722-.68219-16.5214-1.60793-24.57479-4.04151-4.47706-1.35293-5.24035-3.49722-4.42063-7.79934,1.29552-6.79889,3.16748-13.20415,7.83446-18.4803a5.17223,5.17223,0,0,0,1.05417-3.844c-.01926-31.10525-.0936-62.2109.08657-93.31513.02278-3.93756-2.68193-6.11988-4.24975-8.93184-2.85021-5.11241-5.85339-10.14059-8.274-15.47518-.818-1.80291-1.79105-2.38557-3.83672-2.2904-6.64115.30884-13.29986.48251-19.94486.35356-2.60386-.0505-3.70913.93-4.82279,3.09536-3.4527,6.71382-7.16081,13.29688-10.81407,19.90624a8.617,8.617,0,0,0-1.11491,4.361q-.0124,46.427-.17076,92.854a6.95888,6.95888,0,0,0,1.76318,4.54176c4.66516,6.0195,5.71264,13.46193,7.73724,20.5063.76748,2.67061-1.22063,3.5195-3.19672,4.13707a104.41178,104.41178,0,0,1-39.77924,4.42908c-8.43051-.67459-16.84367-1.61632-25.02182-4.163-4.0136-1.24978-4.8408-3.31443-4.11468-7.20732,1.29269-6.931,3.11434-13.54587,7.92625-18.93811a5.09132,5.09132,0,0,0,1.09439-3.83842c-.4366-30.02693.776-60.0368.962-90.05766a13.50029,13.50029,0,0,0-1.84487-7.43637,86.16189,86.16189,0,0,1-8.56308-19.36966c-.73428-2.39582-1.878-3.58524-4.563-3.29017-2.44782.26906-4.945.05538-7.41792.13422-6.16794.19651-7.37917-.91219-7.37837-7.01643.00521-43.48852-.02958-86.9772.12011-130.46524.01371-3.96924-.56408-5.64873-5.08545-5.27884-9.0373.73932-16.23777-2.97-21.59687-11.22166-2.63095,6.87465-3.35049,13.54414-4.909,19.98718C17.297,330.381,16.18,360.88368,17.07515,391.54428c.06742,2.31121.47978,4.61046.65893,6.92087.19082,2.46022-.62641,5.81925.67309,7.16192,1.57008,1.62222,4.50924-.66235,6.887-1.08313,2.73881-.48461,2.99638,1.52688,3.62561,3.21059,5.1505,13.78194,8.32512,28.1233,11.951,42.33674.26617,1.04346.40294,2.12683.7447,3.143,2.49451,7.41942,2.34233,7.889-5.09588,9.97372-5.64647,1.5826-11.37181,2.88424-17.06508,4.29855-2.72442.67687-4.79661.24106-5.776-2.86881C8.57383,448.42688,4.52011,431.92979.18321,415.50949c-.83376-3.15686,1.31842-4.08249,3.62109-4.87079,2.76125-.94529,6.43763-1.07254,8.06506-2.97146,1.74675-2.038-.25269-5.59367-.48816-8.48793-1.2715-15.63178-.436-31.24757.18391-46.84852.76182-19.17207,4.34562-37.96411,8.67073-56.62017,1.52941-6.5967,2.675-13.28549,4.87412-19.71736.68748-2.01089.084-3.88111-.47592-5.86312a65.35218,65.35218,0,0,1,3.555-46.111,38.06283,38.06283,0,0,1,10.64648-13.86407c5.05214-4.13415,10.74631-6.14734,17.23041-3.752,2.42369.89539,4.87321.67179,7.29894.68735,14.85068.09522,29.70307-.01519,44.55228.1631,2.97417.0357,3.433-.71858,3.22811-3.589-.42912-6.00992-.36895-12.06345-.29485-18.09644.02992-2.43037-.39524-3.46726-3.21088-3.49875-11.596-.12968-23.188-.58028-34.78263-.86283-6.27265-.15286-7.37928-1.11419-7.433-7.25309-.092-10.52334-.35819-21.05688.00589-31.56682.15026-4.33669-1.28657-5.29445-5.12534-4.81464-9.45033,1.18117-15.464-4.53583-15.53329-14.757-.03229-4.785-.719-9.58165-.52238-14.34885.40635-9.86283-.055-19.77647,1.51377-29.58084.54618-3.41273,1.44454-6.88473,3.89984-9.24246,2.60069-2.49735,2.69644-5.11973,2.44193-8.29959C51.07829,48.522,51.37857,35.671,51.58027,22.82777a8.06109,8.06109,0,0,0-1.52487-5.51361C47.5763,13.99608,48.12576,6.0163,50.52882,2.78c2.54732-3.43056,6.81339-3.55122,8.75595.07986,2.1668,4.04984,3.2783,8.61126.50957,12.74437-1.69417,2.529-1.92227,4.994-1.91434,7.76321.0357,12.38039.06,24.76128-.02708,37.14116-.01722,2.45.04487,3.84038,3.29735,3.87821,3.3489.039,3.27932-1.5034,3.2519-3.87393-.095-8.20147.00057-16.40518-.1013-24.60648-.04635-3.73353.90516-5.222,5.20941-4.52586,3.87106.62614,7.98393-.41133,11.99233-.44188,57.38607-.43751,114.75606-2.20318,172.14939-2.12965,4.2084.00538,5.73067,1.41049,5.75141,5.64692.04475,9.11985.64113,18.236.7668,27.357.03614,2.62428,1.32725,2.81243,3.13881,2.40856,1.59468-.35555,4.36228,1.4648,4.35446-2.23692q-.0447-21.12479.0349-42.24964c.00544-1.37053-.7881-2.2824-1.2885-3.37558-1.95989-4.28091-2.37156-8.665-.26323-12.94622,2.125-4.31511,7.31367-4.62057,9.49951-.44823,2.29836,4.38716,3.11559,9.20239-.04918,13.56286a7.94625,7.94625,0,0,0-1.42822,5.11351c-.06674,14.08207-.13144,28.16432-.27728,42.24565-.01507,1.46238.04329,2.65175,1.20647,3.73416,4.89292,4.55292,6.18041,10.67821,6.39842,16.87557.456,12.9595,1.1668,25.91848.2306,38.91165-.70811,9.82887-4.882,14.33059-14.748,14.10725-3.72987-.08446-4.708.49-4.43129,4.67971.87581,13.262.9591,26.5752,1.4425,39.86519.14595,4.01444-2.2808,4.74606-5.383,4.438-10.958-1.08813-21.96639-.20042-32.92154-.95652-2.78981-.19259-3.77452.26427-3.60081,3.32574.30652,5.39985.218,10.83224.05711,16.24391-.07218,2.42454.668,3.08323,3.0961,3.11529,13.61034.1795,27.21729.58872,40.827.84072,5.45871.10109,10.78359.93418,16.39936-.65907,5.45576-1.54788,10.55889,1.33766,14.64921,5.28939,12.41578,11.99448,15.53624,27.27017,15.32491,43.7056a1.46208,1.46208,0,0,1-.04714.46063c-4.98732,14.12544-.36907,27.66344,2.904,41.13387,8.13939,33.4981,9.8424,67.44439,8.00908,101.69279-.42266,7.89785-.52816,7.94353,7.00568,10.56749,3.05689,1.06461,5.30347,2.23384,4.18641,6.24622-4.14108,14.87567-8.00795,29.82793-12.18631,44.69272-1.97519,7.0268-2.91786,7.43155-9.79153,5.64032-5.82483-1.51776-11.59356-3.25107-17.42213-4.75329-2.83015-.72946-3.98619-2.44882-3.17293-5.11286,4.86585-15.94091,7.79288-32.41607,13.5002-48.14159,1.46494-4.03647,3.17735-5.30693,6.94619-3.60967,3.54426,1.596,4.40965.652,4.68273-3.2798.92363-13.29518.7268-26.58911.80522-39.88956.13745-23.30767-3.90347-46.063-8.85283-68.707C308.15162,290.43962,307.257,286.5444,306.02719,281.06749Zm-242.6146,38.534-.8247.00063q0,31.5604-.00068,63.12088-.00239,20.42712-.0238,40.85424c-.00351,2.09271-.21167,3.93807,2.97134,3.86841,13.44989-.29451,26.904-.39024,40.35658-.56107,26.288-.33384,52.58312-1.20608,78.86182-.85325,26.29445.353,52.58675.20456,78.87757.54044,2.41939.03083,3.02539-.84435,3.25044-3.19926,1.39966-14.64771,1.015-29.36129,1.50617-44.03048.97315-29.06117.83207-58.15919,1.204-87.24128.29066-22.7407.70935-45.47991.93372-68.22112.02844-2.88418,2.27116-6.42572.12068-8.41051-1.99457-1.8408-5.59616-.08055-8.49917-.10132-28.60755-.20447-57.20636-.80139-85.80858-1.38164-36.02785-.73088-72.06895-.80484-108.10189-1.3234-3.77973-.05438-4.93837.84248-4.919,4.80223C63.48341,251.50987,63.41259,285.55586,63.41259,319.60151Zm8.39492-200.13514c0,17.16917.0434,34.33854-.04612,51.50723-.01359,2.6213.42493,3.76505,3.48613,3.83094,23.00493.49547,46.01767.92818,69.00129,1.97063,10.8092.49024,21.61773.51076,32.41911.94946,26.07111,1.05882,52.13542,2.28068,78.22828,2.76039,3.11071.05713,3.69463-1.10119,3.50267-3.73848-.35887-4.92834-.75173-9.86393-.83-14.80123-.27671-17.45738-1.03751-34.89428-1.75989-52.337-.90776-21.92062-1.39819-43.85846-2.08862-65.78823-.05337-1.69491-.405-3.38789-.36952-5.07656.06981-3.33829-1.28181-4.43021-4.72216-4.30626-8.33226.30018-16.67335.48757-25.00742.69393-29.2029.7231-58.42121.26249-87.63295,1.0961-20.08446.57316-40.1985.2396-60.29725.06814-3.76454-.03209-4.97814.80914-4.9225,4.77976C71.13465,67.20439,72.198,93.32723,71.80751,119.46637ZM90.63214,464.855v86.86572c14.23675-7.75717,28.26013-7.09277,42.49053-.37017,0-6.79079-.0093-13.11539.00158-19.44005q.053-30.825.12827-61.64995c.00941-3.24754.10471-5.0025-4.70981-4.18258C116.06019,468.20412,103.40894,468.44727,90.63214,464.855ZM238.721,462.53144a74.931,74.931,0,0,1-39.39975.32194c-3.1548-.83987-2.26052,1.56508-2.2604,3.03109q.00255,40.82541.10107,81.65066c.00329,1.25834-.56294,2.725.72782,3.91274,13.45567-7.362,27.10307-6.69818,40.83126-.75179Zm-72.73376-255.327.00068.91288c15.4585,0,30.9178-.07261,46.37506.06438,2.91105.02582,4.20159-.6836,4.24465-3.76729.07128-5.09761.31253-10.20566.79185-15.28.30527-3.23239-.67944-4.27477-3.98585-4.24068-8.6518.08921-17.3112-.07453-25.96085-.34866q-34.50619-1.09356-69.00525-2.40708c-2.50913-.09457-3.209.76069-3.045,3.16247.42063,6.15907.87819,12.33141.867,18.49762-.00555,3.09281,1.20805,3.47146,3.81724,3.45465C135.38635,207.15438,150.6869,207.20446,165.98722,207.20446Zm110.834,61.66726c0,6.34305.034,10.67646-.01712,15.00887-.02005,1.68774.08816,2.82555,2.28715,3.17939,9.65554,1.55367,16.84593-1.7235,20.88684-10.79846,7.99458-17.95429,6.66019-35.53314-3.49133-52.32823a19.80573,19.80573,0,0,0-10.37793-8.9115c-4.3701-1.51256-8.22019.74568-8.1922,4.83037C278.03359,236.87117,277.837,253.88223,276.82124,268.87172ZM56.10572,248.90118h.01541c0-10.35461.02776-20.70935-.01133-31.06379-.02074-5.4745-2.81666-7.26386-7.99107-5.18649A20.86274,20.86274,0,0,0,37.978,221.82276c-9.59175,16.28577-11.41124,33.36516-4.1302,50.98675,3.68272,8.913,8.88376,11.74531,18.49307,11.65423,3.12012-.02953,3.86494-1.11072,3.82335-4.03582C56.01507,269.92082,56.10572,259.41038,56.10572,248.90118Zm90.01822,186.81154q-.23507-.817-.47025-1.63411c-21.16073,0-42.32146.03185-63.482-.03339-3.2774-.01009-3.14267,1.24581-2.00862,3.6337,2.916,6.13995,5.76806,12.31492,8.4441,18.56227a7.32781,7.32781,0,0,0,5.73746,4.69836,83.453,83.453,0,0,0,29.434.94c3.58653-.53034,7.66959-.30669,9.8517-4.06372C137.88052,450.49788,141.96869,443.08583,146.12394,435.71272Zm-33.118,147.59639a86.52178,86.52178,0,0,0,25.39813-2.66948c1.84884-.468,3.39457-.94824,2.89485-3.24024-1.35117-6.1965-2.94845-12.16148-7.58234-17.05941-8.45237-8.93377-19.14339-8.93065-29.71044-7.11641-11.03617,1.89473-18.32593,9.122-21.55608,20.01722-1.47649,4.97994-.63966,6.28436,4.13338,7.45506A93.63861,93.63861,0,0,0,113.00591,583.30911Zm106.56307.00379a88.12176,88.12176,0,0,0,25.67961-2.68608c1.90312-.47922,3.28374-1.07016,2.79275-3.32282-1.38663-6.36087-3.09893-12.43569-7.97-17.36049-8.63447-8.72973-19.28458-8.5076-29.84426-6.56266-10.88694,2.00514-17.89364,9.27527-21.05693,19.94841-1.46924,4.95784-.628,6.18874,4.25723,7.38485A93.084,93.084,0,0,0,219.569,583.3129Zm-36.67-149.06465c3.74879,6.676,7.3326,12.76857,10.60864,19.02232a9.19288,9.19288,0,0,0,6.66891,4.98681,71.381,71.381,0,0,0,36.05119-1.05384,5.19953,5.19953,0,0,0,3.21859-2.4049,145.98465,145.98465,0,0,0,10.49826-21.03353C227.55472,433.80983,205.61065,431.99457,182.899,434.24825Zm93.05585-332.881c-.212-5.6476,1.10845-14.63576-.89949-23.50313-1.45746-6.43578-4.99117-9.06949-11.41952-9.02177-2.5855.01919-3.60057.69974-3.41372,3.3844.4178,6.00423.73281,12.01959.91015,18.03571.38651,13.11744.64782,26.23852,1.00521,39.35689.03037,1.11811-.514,2.46042,1.05281,3.20252,4.828,2.28666,12.563-1.99494,12.71561-7.31065C276.10554,118.56273,275.95483,111.60411,275.95483,101.36729ZM50.46458,102.55511c0,7.70511-.01394,13.72923.00328,19.75332.025,8.80865,2.098,10.66515,11.00082,10.70474,3.026.01349,4.01-.83026,3.88261-3.88547q-.65643-15.73-.91161-31.476c-.14652-8.33872-.2042-16.68533.00419-25.02076.08011-3.19782-1.11785-3.968-3.99922-3.78123-4.43094.28718-7.778,3.53495-9.03061,9.07807C49.44576,86.63844,50.72169,95.4648,50.46458,102.55511ZM299.35409,455.1806c-.59762,2.32912.71694,3.43272,2.70086,4.05648,2.94539.926,5.98154,1.62544,8.827,2.79235,3.56794,1.46318,4.97474.09352,5.857-3.29357,2.99774-11.509,6.15536-22.97677,9.30449-34.44586,2.06414-7.51764,2.11944-7.57772-5.52409-9.13425-3.25043-.66195-7.14823-3.58144-9.49894-1.6531-2.15264,1.76595-2.1693,6.18-3.0493,9.44819Q303.63393,439.058,299.35409,455.1806Zm-263.8074-.97114c-.15773-.54242-.47864-1.57369-.75773-2.61608-2.83831-10.59419-5.70506-21.1809-8.49124-31.78875-2.07173-7.88741-2.02822-7.91881-9.73826-6.25545-2.55933.55223-5.09452,1.21821-7.63538,1.85358-1.644.41109-2.12737,1.22569-1.61586,3.04021q5.65667,20.07226,11.08138,40.2098c.69371,2.55771,1.87321,3.70387,4.64024,2.72519,3.20069-1.13188,6.48466-2.02656,9.72013-3.06237C34.47519,457.76325,35.8982,456.91045,35.54669,454.20946Z"/><path class="cls-2" d="M63.41259,319.60151c0-34.04565.07082-68.09164-.09552-102.1365-.01938-3.95975,1.13926-4.85661,4.919-4.80223,36.03294.51856,72.074.59252,108.10189,1.3234,28.60222.58025,57.201,1.17717,85.80858,1.38164,2.903.02077,6.5046-1.73948,8.49917.10132,2.15048,1.98479-.09224,5.52633-.12068,8.41051-.22437,22.74121-.64306,45.48042-.93372,68.22112-.3719,29.08209-.23082,58.18011-1.204,87.24128-.49121,14.66919-.10651,29.38277-1.50617,44.03048-.22505,2.35491-.83105,3.23009-3.25044,3.19926-26.29082-.33588-52.58312-.18744-78.87757-.54044-26.2787-.35283-52.57383.51941-78.86182.85325-13.45261.17083-26.90669.26656-40.35658.56107-3.183.06966-2.97485-1.7757-2.97134-3.86841q.03451-20.42712.0238-40.85424.00374-31.56042.00068-63.12088Z"/><path class="cls-2" d="M71.80751,119.46637c.39049-26.13914-.67286-52.262-1.039-78.39122-.05564-3.97062,1.158-4.81185,4.9225-4.77976,20.09875.17146,40.21279.505,60.29725-.06814,29.21174-.83361,58.43005-.373,87.63295-1.0961,8.33407-.20636,16.67516-.39375,25.00742-.69393,3.44035-.124,4.792.968,4.72216,4.30626-.03546,1.68867.31615,3.38165.36952,5.07656.69043,21.92977,1.18086,43.86761,2.08862,65.78823.72238,17.44276,1.48318,34.87966,1.75989,52.337.0783,4.9373.47116,9.87289.83,14.80123.192,2.63729-.392,3.79561-3.50267,3.73848-26.09286-.47971-52.15717-1.70157-78.22828-2.76039-10.80138-.4387-21.60991-.45922-32.41911-.94946-22.98362-1.04245-45.99636-1.47516-69.00129-1.97063-3.0612-.06589-3.49972-1.20964-3.48613-3.83094C71.85091,153.80491,71.80751,136.63554,71.80751,119.46637Zm145.5013-11.92012c-.77236-8.64136-.92125-17.3092-4.39288-25.41114-.87116-2.03334-1.8945-3.81516-4.08272-4.75425-4.44534-1.90763-8.0943-.01332-10.4585,5.98716-4.31672,10.95594-3.687,22.37632-2.58958,33.758a33.71918,33.71918,0,0,0,3.99366,13.18545c1.44159,2.59862,3.14925,5.17432,6.531,5.19538,3.62607.02261,5.23967-2.71717,6.72953-5.52846C216.78665,122.90716,216.42314,115.075,217.30881,107.54625Zm-107.42427-2.43757a84.579,84.579,0,0,0,.05156,8.78428c.678,6.46072,1.81269,12.88471,5.6731,18.32942,3.27173,4.61468,7.73837,4.45584,10.87254-.20356a30.37155,30.37155,0,0,0,3.16341-7.15753c1.754-5.04575,1.91151-10.35319,2.01576-15.51049.1898-9.38377-.62063-18.76457-4.296-27.61409a7.42681,7.42681,0,0,0-3.89859-4.34494c-4.332-1.87642-7.51186-.3755-10.07765,5.11192C110.03615,89.67358,109.626,97.36137,109.88454,105.10868Zm53.80284,50.15079.00011-.11526c5.708,0,11.41759.07674,17.12356-.034,2.65541-.05152,4.8272-1.12865,5.292-4.11346.47728-3.0647-1.43422-4.5328-3.94471-5.40881a9.8745,9.8745,0,0,0-3.17565-.47888q-15.742-.04566-31.48415-.00244c-3.58641.00845-6.07842,1.5088-6.05293,5.41062.0255,3.89993,2.94539,4.6549,6.0382,4.71367C152.88328,155.33352,158.286,155.25947,163.68738,155.25947Z"/><path class="cls-3" d="M90.63214,464.855c12.7768,3.59227,25.42805,3.34912,37.91057,1.223,4.81452-.81992,4.71922.935,4.70981,4.18258q-.08991,30.82484-.12827,61.64995c-.01088,6.32466-.00158,12.64926-.00158,19.44005-14.2304-6.7226-28.25378-7.387-42.49053.37017Z"/><path class="cls-3" d="M238.721,462.53144v88.16464c-13.72819-5.94639-27.37559-6.61021-40.83126.75179-1.29076-1.18777-.72453-2.6544-.72782-3.91274q-.10911-40.82524-.10107-81.65066c-.00012-1.466-.8944-3.871,2.2604-3.03109A74.931,74.931,0,0,0,238.721,462.53144Z"/><path class="cls-3" d="M165.98722,207.20446c-15.30032,0-30.60087-.05008-45.9005.04829-2.60919.01681-3.82279-.36184-3.81724-3.45465.01122-6.16621-.44634-12.33855-.867-18.49762-.164-2.40178.53587-3.257,3.045-3.16247q34.49906,1.30027,69.00525,2.40708c8.64965.27413,17.309.43787,25.96085.34866,3.30641-.03409,4.29112,1.00829,3.98585,4.24068-.47932,5.07434-.72057,10.18239-.79185,15.28-.04306,3.08369-1.3336,3.79311-4.24465,3.76729-15.45726-.137-30.91656-.06438-46.37506-.06438Z"/><path class="cls-4" d="M276.82124,268.87172c1.01575-14.98949,1.21235-32.00055,1.09541-49.01956-.028-4.08469,3.8221-6.34293,8.1922-4.83037a19.80573,19.80573,0,0,1,10.37793,8.9115c10.15152,16.79509,11.48591,34.37394,3.49133,52.32823-4.04091,9.075-11.2313,12.35213-20.88684,10.79846-2.199-.35384-2.3072-1.49165-2.28715-3.17939C276.85523,279.54818,276.82124,275.21477,276.82124,268.87172Z"/><path class="cls-4" d="M56.10572,248.90118c0,10.5092-.09065,21.01964.05847,31.52674.04159,2.9251-.70323,4.00629-3.82335,4.03582-9.60931.09108-14.81035-2.74121-18.49307-11.65423-7.281-17.62159-5.46155-34.701,4.1302-50.98675a20.86274,20.86274,0,0,1,10.14076-9.17186c5.17441-2.07737,7.97033-.288,7.99107,5.18649.03909,10.35444.01133,20.70918.01133,31.06379Z"/><path class="cls-4" d="M146.12394,435.71272c-4.15525,7.37311-8.24342,14.78516-12.49362,22.10313-2.18211,3.757-6.26517,3.53338-9.8517,4.06372a83.453,83.453,0,0,1-29.434-.94,7.32781,7.32781,0,0,1-5.73746-4.69836c-2.676-6.24735-5.52806-12.42232-8.4441-18.56227-1.13405-2.38789-1.26878-3.64379,2.00862-3.6337,21.1605.06524,42.32123.03339,63.482.03339Q145.88892,434.89563,146.12394,435.71272Z"/><path class="cls-4" d="M113.00591,583.30911a93.63861,93.63861,0,0,1-26.4225-2.61326c-4.773-1.1707-5.60987-2.47512-4.13338-7.45506,3.23015-10.89522,10.51991-18.12249,21.55608-20.01722,10.567-1.81424,21.25807-1.81736,29.71044,7.11641,4.63389,4.89793,6.23117,10.86291,7.58234,17.05941.49972,2.292-1.046,2.77224-2.89485,3.24024A86.52178,86.52178,0,0,1,113.00591,583.30911Z"/><path class="cls-4" d="M219.57431,583.3163a93.23,93.23,0,0,1-26.14692-2.60219c-4.88522-1.19611-5.72647-2.427-4.25723-7.38485,3.16329-10.67314,10.17-17.94327,21.05693-19.94841,10.55968-1.94494,21.20979-2.16707,29.84426,6.56266,4.87106,4.9248,6.58336,10.99962,7.97,17.36049.491,2.25266-.88963,2.8436-2.79275,3.32282A88.22371,88.22371,0,0,1,219.57431,583.3163Z"/><path class="cls-4" d="M182.899,434.24825c22.71167-2.25368,44.65574-.43842,67.04559-.48314a145.98465,145.98465,0,0,1-10.49826,21.03353,5.19953,5.19953,0,0,1-3.21859,2.4049,71.381,71.381,0,0,1-36.05119,1.05384,9.19288,9.19288,0,0,1-6.66891-4.98681C190.23158,447.01682,186.64777,440.92426,182.899,434.24825Z"/><path class="cls-4" d="M275.95483,101.36729c0,10.23682.15071,17.19544-.04895,24.144-.15264,5.31571-7.88761,9.59731-12.71561,7.31065-1.5668-.7421-1.02244-2.08441-1.05281-3.20252-.35739-13.11837-.6187-26.23945-1.00521-39.35689-.17734-6.01612-.49235-12.03148-.91015-18.03571-.18685-2.68466.82822-3.36521,3.41372-3.3844,6.42835-.04772,9.96206,2.586,11.41952,9.02177C277.06328,86.73153,275.74282,95.71969,275.95483,101.36729Z"/><path class="cls-4" d="M50.46458,102.55511c.25711-7.09031-1.01882-15.91667.94946-24.62738,1.25258-5.54312,4.59967-8.79089,9.03061-9.07807,2.88137-.18673,4.07933.58341,3.99922,3.78123-.20839,8.33543-.15071,16.682-.00419,25.02076q.27654,15.74182.91161,31.47605c.12737,3.05521-.85665,3.899-3.88261,3.88547-8.9028-.03959-10.97578-1.89609-11.00082-10.70474C50.45064,116.28434,50.46458,110.26022,50.46458,102.55511Z"/><path class="cls-4" d="M299.35409,455.1806q4.30437-16.116,8.617-32.22976c.88-3.26818.89666-7.68224,3.0493-9.44819,2.35071-1.92834,6.24851.99115,9.49894,1.6531,7.64353,1.55653,7.58823,1.61661,5.52409,9.13425-3.14913,11.46909-6.30675,22.93682-9.30449,34.44586-.88227,3.38709-2.28907,4.75675-5.857,3.29357-2.84545-1.16691-5.8816-1.86639-8.827-2.79235C300.071,458.61332,298.75647,457.50972,299.35409,455.1806Z"/><path class="cls-4" d="M35.54669,454.20946c.35151,2.701-1.0715,3.55379-2.79672,4.10613-3.23547,1.03581-6.51944,1.93049-9.72013,3.06237-2.767.97868-3.94653-.16748-4.64024-2.72519Q12.9313,438.52526,7.30822,418.443c-.51151-1.81452-.02811-2.62912,1.61586-3.04021,2.54086-.63537,5.07605-1.30135,7.63538-1.85358,7.71-1.66336,7.66653-1.632,9.73826,6.25545,2.78618,10.60785,5.65293,21.19456,8.49124,31.78875C35.06805,452.63577,35.389,453.667,35.54669,454.20946Z"/><path class="cls-1" d="M217.30881,107.54625c-.88567,7.5287-.52216,15.36091-4.26948,22.43212-1.48986,2.81129-3.10346,5.55107-6.72953,5.52846-3.38176-.02106-5.08942-2.59676-6.531-5.19538a33.71918,33.71918,0,0,1-3.99366-13.18545c-1.09745-11.38166-1.72714-22.802,2.58958-33.758,2.3642-6.00048,6.01316-7.89479,10.4585-5.98716,2.18822.93909,3.21156,2.72091,4.08272,4.75425C216.38756,90.23705,216.53645,98.90489,217.30881,107.54625Z"/><path class="cls-1" d="M109.88454,105.10868c-.25858-7.74731.15161-15.4351,3.50414-22.605,2.56579-5.48742,5.74563-6.98834,10.07765-5.11192a7.42681,7.42681,0,0,1,3.89859,4.34494c3.67536,8.84952,4.48579,18.23032,4.296,27.61409-.10425,5.1573-.26176,10.46474-2.01576,15.51049a30.37155,30.37155,0,0,1-3.16341,7.15753c-3.13417,4.6594-7.60081,4.81824-10.87254.20356-3.86041-5.44471-4.99514-11.8687-5.6731-18.32942A84.579,84.579,0,0,1,109.88454,105.10868Z"/><path class="cls-1" d="M163.68738,155.25947c-5.40137,0-10.8041.074-16.20355-.0286-3.09281-.05877-6.0127-.81374-6.0382-4.71367-.02549-3.90182,2.46652-5.40217,6.05293-5.41062q15.74214-.03716,31.48415.00244a9.8745,9.8745,0,0,1,3.17565.47888c2.51049.876,4.422,2.34411,3.94471,5.40881-.46482,2.98481-2.63661,4.06194-5.292,4.11346-5.706.11078-11.41555.034-17.12356.034Z"/></g></g></svg>